<?xml version="1.0" encoding="UTF-8" standalone="no"?>
<!-- Created with Inkscape (http://www.inkscape.org/) -->

<svg
   version="1.1"
   id="svg2"
   xml:space="preserve"
   width="370.65732"
   height="159.00533"
   viewBox="0 0 370.65732 159.00533"
   sodipodi:docname="main.pdf"
   xmlns:inkscape="http://www.inkscape.org/namespaces/inkscape"
   xmlns:sodipodi="http://sodipodi.sourceforge.net/DTD/sodipodi-0.dtd"
   xmlns="http://www.w3.org/2000/svg"
   xmlns:svg="http://www.w3.org/2000/svg"><defs
     id="defs6" /><sodipodi:namedview
     id="namedview4"
     pagecolor="#ffffff"
     bordercolor="#666666"
     borderopacity="1.0"
     inkscape:pageshadow="2"
     inkscape:pageopacity="0.0"
     inkscape:pagecheckerboard="0" /><g
     id="g8"
     inkscape:groupmode="layer"
     inkscape:label="main"
     transform="matrix(1.3333333,0,0,-1.3333333,0,159.00533)"><g
       id="g10"
       transform="translate(-19.743,-19.743)"><g
         id="g12"><g
           id="g14"><g
             id="g16"><path
               d="M 19.84265,39.68535 H 297.64018 M 19.84265,79.37071 H 297.64018 M 19.84265,119.05606 H 297.64018 M 39.68535,19.84265 V 138.89874 M 79.37071,19.84265 V 138.89874 M 119.05606,19.84265 V 138.89874 M 158.74142,19.84265 V 138.89874 M 198.42679,19.84265 V 138.89874 M 238.11215,19.84265 V 138.89874 M 277.79752,19.84265 v 119.05609"
               style="fill:none;stroke:#bfbfbf;stroke-width:0.19925;stroke-linecap:butt;stroke-linejoin:miter;stroke-miterlimit:10;stroke-dasharray:none;stroke-opacity:1"
               id="path18" /></g><path
             d="m 39.68535,39.68536 39.68536,79.37072 V 79.37073"
             style="fill:none;stroke:#000000;stroke-width:0.79701;stroke-linecap:butt;stroke-linejoin:miter;stroke-miterlimit:10;stroke-dasharray:none;stroke-opacity:1"
             id="path20" /><g
             id="g22"><g
               id="g24"><path
                 d="M 138.89879,45.00212 133.58205,133.582 153.42471,99.2134"
                 style="fill:none;stroke:#000000;stroke-width:0.79701;stroke-linecap:butt;stroke-linejoin:miter;stroke-miterlimit:10;stroke-dasharray:none;stroke-opacity:1"
                 id="path26" /></g><g
               id="g28"><path
                 d="m 119.0561,39.68536 39.68537,79.37072 V 79.37073"
                 style="fill:none;stroke:#808080;stroke-width:0.79701;stroke-linecap:butt;stroke-linejoin:miter;stroke-miterlimit:10;stroke-dasharray:0.79701, 1.99255;stroke-dashoffset:0;stroke-opacity:1"
                 id="path30" /></g><g
               id="g32"><path
                 d="m 119.0561,39.68536 c 6.96444,0 13.81141,1.83484 19.2301,4.96309"
                 style="fill:none;stroke:#808080;stroke-width:0.79701;stroke-linecap:butt;stroke-linejoin:miter;stroke-miterlimit:10;stroke-dasharray:none;stroke-opacity:1"
                 id="path34" /><g
                 id="g36"
                 transform="matrix(0.86603,0.49997,-0.49997,0.86603,138.2862,44.64845)"><g
                   id="g38"><path
                     d="M -1.55415,2.0722 C -1.42464,1.29512 0,0.1295 0.38852,0 0,-0.1295 -1.42464,-1.29512 -1.55415,-2.0722"
                     style="fill:none;stroke:#808080;stroke-width:0.6376;stroke-linecap:round;stroke-linejoin:round;stroke-miterlimit:10;stroke-dasharray:none;stroke-opacity:1"
                     id="path40" /></g></g><path
                 d="m 158.74147,119.05608 c -6.96407,6.96406 -15.64604,11.97731 -24.4763,14.34288"
                 style="fill:none;stroke:#808080;stroke-width:0.79701;stroke-linecap:butt;stroke-linejoin:miter;stroke-miterlimit:10;stroke-dasharray:none;stroke-opacity:1"
                 id="path42" /><g
                 id="g44"
                 transform="matrix(-0.96593,0.25874,-0.25874,-0.96593,134.26518,133.39894)"><g
                   id="g46"><path
                     d="M -1.55415,2.0722 C -1.42464,1.29512 0,0.1295 0.38852,0 0,-0.1295 -1.42464,-1.29512 -1.55415,-2.0722"
                     style="fill:none;stroke:#808080;stroke-width:0.6376;stroke-linecap:round;stroke-linejoin:round;stroke-miterlimit:10;stroke-dasharray:none;stroke-opacity:1"
                     id="path48" /></g></g><path
                 d="m 158.74147,79.37073 c 0,6.96441 -1.83484,13.81138 -4.96309,19.23007"
                 style="fill:none;stroke:#808080;stroke-width:0.79701;stroke-linecap:butt;stroke-linejoin:miter;stroke-miterlimit:10;stroke-dasharray:none;stroke-opacity:1"
                 id="path50" /><g
                 id="g52"
                 transform="matrix(-0.49997,0.86603,-0.86603,-0.49997,153.77838,98.6008)"><g
                   id="g54"><path
                     d="M -1.55415,2.0722 C -1.42464,1.29512 0,0.1295 0.38852,0 0,-0.1295 -1.42464,-1.29512 -1.55415,-2.0722"
                     style="fill:none;stroke:#808080;stroke-width:0.6376;stroke-linecap:round;stroke-linejoin:round;stroke-miterlimit:10;stroke-dasharray:none;stroke-opacity:1"
                     id="path56" /></g></g></g></g><g
             id="g58"><g
               id="g60"><path
                 d="M 198.42686,23.81166 253.98593,134.9298 V 79.37073"
                 style="fill:none;stroke:#000000;stroke-width:0.79701;stroke-linecap:butt;stroke-linejoin:miter;stroke-miterlimit:10;stroke-dasharray:none;stroke-opacity:1"
                 id="path62" /></g><g
               id="g64"><path
                 d="m 198.42686,39.68536 39.68537,79.37072 V 79.37073"
                 style="fill:none;stroke:#808080;stroke-width:0.79701;stroke-linecap:butt;stroke-linejoin:miter;stroke-miterlimit:10;stroke-dasharray:0.79701, 1.99255;stroke-dashoffset:0;stroke-opacity:1"
                 id="path66" /></g><g
               id="g68"><path
                 d="M 198.42686,39.68536 V 24.51884"
                 style="fill:none;stroke:#808080;stroke-width:0.79701;stroke-linecap:butt;stroke-linejoin:miter;stroke-miterlimit:10;stroke-dasharray:none;stroke-opacity:1"
                 id="path70" /><g
                 id="g72"
                 transform="rotate(-90,111.47285,-86.95401)"><g
                   id="g74"><path
                     d="M -1.55415,2.0722 C -1.42464,1.29512 0,0.1295 0.38852,0 0,-0.1295 -1.42464,-1.29512 -1.55415,-2.0722"
                     style="fill:none;stroke:#808080;stroke-width:0.6376;stroke-linecap:round;stroke-linejoin:round;stroke-miterlimit:10;stroke-dasharray:none;stroke-opacity:1"
                     id="path76" /></g></g><path
                 d="m 238.11223,119.05608 15.37372,15.37372"
                 style="fill:none;stroke:#808080;stroke-width:0.79701;stroke-linecap:butt;stroke-linejoin:miter;stroke-miterlimit:10;stroke-dasharray:none;stroke-opacity:1"
                 id="path78" /><g
                 id="g80"
                 transform="matrix(0.7071,0.7071,-0.7071,0.7071,253.48593,134.42978)"><g
                   id="g82"><path
                     d="M -1.55415,2.0722 C -1.42464,1.29512 0,0.1295 0.38852,0 0,-0.1295 -1.42464,-1.29512 -1.55415,-2.0722"
                     style="fill:none;stroke:#808080;stroke-width:0.6376;stroke-linecap:round;stroke-linejoin:round;stroke-miterlimit:10;stroke-dasharray:none;stroke-opacity:1"
                     id="path84" /></g></g><path
                 d="m 238.11223,79.37073 h 15.16653"
                 style="fill:none;stroke:#808080;stroke-width:0.79701;stroke-linecap:butt;stroke-linejoin:miter;stroke-miterlimit:10;stroke-dasharray:none;stroke-opacity:1"
                 id="path86" /><g
                 id="g88"
                 transform="translate(253.27876,79.37073)"><g
                   id="g90"><path
                     d="M -1.55415,2.0722 C -1.42464,1.29512 0,0.1295 0.38852,0 0,-0.1295 -1.42464,-1.29512 -1.55415,-2.0722"
                     style="fill:none;stroke:#808080;stroke-width:0.6376;stroke-linecap:round;stroke-linejoin:round;stroke-miterlimit:10;stroke-dasharray:none;stroke-opacity:1"
                     id="path92" /></g></g></g></g></g></g></g></g></svg>
