<?xml version="1.0" encoding="UTF-8" standalone="no"?>
<!-- Created with Inkscape (http://www.inkscape.org/) -->

<svg
   version="1.1"
   id="svg2"
   xml:space="preserve"
   width="98.444"
   height="70.314667"
   viewBox="0 0 98.444 70.314667"
   sodipodi:docname="main.pdf"
   xmlns:inkscape="http://www.inkscape.org/namespaces/inkscape"
   xmlns:sodipodi="http://sodipodi.sourceforge.net/DTD/sodipodi-0.dtd"
   xmlns="http://www.w3.org/2000/svg"
   xmlns:svg="http://www.w3.org/2000/svg"><defs
     id="defs6" /><sodipodi:namedview
     id="namedview4"
     pagecolor="#ffffff"
     bordercolor="#666666"
     borderopacity="1.0"
     inkscape:pageshadow="2"
     inkscape:pageopacity="0.0"
     inkscape:pagecheckerboard="0" /><g
     id="g8"
     inkscape:groupmode="layer"
     inkscape:label="main"
     transform="matrix(1.3333333,0,0,-1.3333333,0,70.314667)"><g
       id="g10"
       transform="translate(8.263,13.582)"><g
         id="g12"><g
           id="g14"><g
             id="g16"><path
               d="M 8.0641,0 C 8.0641,4.45372 4.45372,8.0641 0,8.0641 -4.45372,8.0641 -8.0641,4.45372 -8.0641,0 c 0,-4.45372 3.61038,-8.0641 8.0641,-8.0641 4.45372,0 8.0641,3.61038 8.0641,8.0641 z"
               style="fill:none;stroke:#000000;stroke-width:0.3985;stroke-linecap:butt;stroke-linejoin:miter;stroke-miterlimit:10;stroke-dasharray:none;stroke-opacity:1"
               id="path18" /><g
               id="g20"
               transform="translate(-2.633,-2.145)"><g
                 id="g22"><g
                   id="g24"
                   transform="translate(-5.63,-11.437)"><text
                     transform="matrix(1,0,0,-1,5.63,11.437)"
                     style="font-variant:normal;font-weight:normal;font-size:9.9626px;font-family:CMMI10;-inkscape-font-specification:CMMI10;writing-mode:lr-tb;fill:#000000;fill-opacity:1;fill-rule:nonzero;stroke:none"
                     id="text28"><tspan
                       x="0"
                       y="0"
                       id="tspan26">a</tspan></text><g
                     id="g30"
                     transform="translate(5.63,11.437)" /></g></g><g
                 id="g32"
                 transform="translate(2.633,2.145)" /></g></g><g
             id="g34"><path
               d="m 65.37163,28.3468 c 0,4.79279 -3.88523,8.67803 -8.67801,8.67803 -4.7928,0 -8.67802,-3.88524 -8.67802,-8.67803 0,-4.79278 3.88522,-8.67802 8.67802,-8.67802 4.79278,0 8.67801,3.88524 8.67801,8.67802 z"
               style="fill:none;stroke:#000000;stroke-width:0.3985;stroke-linecap:butt;stroke-linejoin:miter;stroke-miterlimit:10;stroke-dasharray:none;stroke-opacity:1"
               id="path36" /><g
               id="g38"
               transform="translate(54.555,24.887)"><g
                 id="g40"><g
                   id="g42"
                   transform="translate(-62.818,-38.469)"><text
                     transform="matrix(1,0,0,-1,62.818,38.469)"
                     style="font-variant:normal;font-weight:normal;font-size:9.9626px;font-family:CMMI10;-inkscape-font-specification:CMMI10;writing-mode:lr-tb;fill:#000000;fill-opacity:1;fill-rule:nonzero;stroke:none"
                     id="text46"><tspan
                       x="0"
                       y="0"
                       id="tspan44">b</tspan></text><g
                     id="g48"
                     transform="translate(62.818,38.469)" /></g></g><g
                 id="g50"
                 transform="translate(-54.555,-24.887)" /></g></g><path
             d="m -3.62225,7.42688 c -0.00809,0.8353 0.54071,1.67602 1.64909,2.24368 l 23.75621,12.16689 c 1.10837,0.56765 1.6572,1.40837 1.64909,2.2437 0.6731,-0.49477 1.67603,-0.54073 2.78441,0.02693 l 23.75625,12.1669 c 1.10836,0.56766 2.1113,0.5217 2.7844,0.02695"
             style="fill:none;stroke:#000000;stroke-width:0.3985;stroke-linecap:butt;stroke-linejoin:miter;stroke-miterlimit:10;stroke-dasharray:none;stroke-opacity:1"
             id="path52" /><g
             id="g54"><g
               id="g56"
               transform="translate(24.59,21.876)"><g
                 id="g58" /><g
                 id="g60"
                 transform="translate(-24.59,-21.876)" /></g></g><g
             id="g62"><g
               id="g64"
               transform="translate(5.239,28.915)"><g
                 id="g66"><g
                   id="g68"
                   transform="translate(-13.502,-42.497)"><text
                     transform="matrix(1,0,0,-1,13.502,42.497)"
                     style="font-variant:normal;font-weight:normal;font-size:9.9626px;font-family:CMR10;-inkscape-font-specification:CMR10;writing-mode:lr-tb;fill:#000000;fill-opacity:1;fill-rule:nonzero;stroke:none"
                     id="text72"><tspan
                       x="0 2.7676103 7.1949897 10.23956"
                       y="0"
                       sodipodi:role="line"
                       id="tspan70">left</tspan></text><g
                     id="g74"
                     transform="translate(13.502,42.497)" /></g></g><g
                 id="g76"
                 transform="translate(-5.239,-28.915)" /></g></g><path
             d="m 60.72371,20.43724 c -0.0081,-0.83531 -0.57309,-1.66528 -1.69228,-2.21139 L 35.05147,6.52473 C 33.93228,5.9786 33.36726,5.14868 33.3592,4.31332 32.6958,4.82104 31.69391,4.88641 30.57472,4.3403 L 6.59474,-7.36082 C 5.47556,-7.90694 4.47368,-7.84154 3.81027,-7.33385"
             style="fill:none;stroke:#000000;stroke-width:0.3985;stroke-linecap:butt;stroke-linejoin:miter;stroke-miterlimit:10;stroke-dasharray:none;stroke-opacity:1"
             id="path78" /><g
             id="g80"><g
               id="g82"
               transform="matrix(0.8987,0.43852,-0.43852,0.8987,27.476,-7.401)"><g
                 id="g84"><g
                   id="g86"
                   transform="translate(-35.739,-6.181)"><text
                     transform="matrix(1,0,0,-1,35.739,6.181)"
                     style="font-variant:normal;font-weight:normal;font-size:9.9626px;font-family:CMR10;-inkscape-font-specification:CMR10;writing-mode:lr-tb;fill:#000000;fill-opacity:1;fill-rule:nonzero;stroke:none"
                     id="text90"><tspan
                       x="0 3.9023504 6.6699605 11.65126 16.907528"
                       y="0"
                       sodipodi:role="line"
                       id="tspan88">right</tspan></text><g
                     id="g92"
                     transform="translate(35.739,6.181)" /></g></g><g
                 id="g94"
                 transform="translate(-27.476,7.401)" /></g></g></g></g></g></g></svg>
