<?xml version="1.0" encoding="UTF-8" standalone="no"?>
<!-- Created with Inkscape (http://www.inkscape.org/) -->

<svg
   version="1.1"
   id="svg2"
   xml:space="preserve"
   width="88.645332"
   height="66.078667"
   viewBox="0 0 88.645332 66.078667"
   sodipodi:docname="main.pdf"
   xmlns:inkscape="http://www.inkscape.org/namespaces/inkscape"
   xmlns:sodipodi="http://sodipodi.sourceforge.net/DTD/sodipodi-0.dtd"
   xmlns="http://www.w3.org/2000/svg"
   xmlns:svg="http://www.w3.org/2000/svg"><defs
     id="defs6" /><sodipodi:namedview
     id="namedview4"
     pagecolor="#ffffff"
     bordercolor="#666666"
     borderopacity="1.0"
     inkscape:pageshadow="2"
     inkscape:pageopacity="0.0"
     inkscape:pagecheckerboard="0" /><g
     id="g8"
     inkscape:groupmode="layer"
     inkscape:label="main"
     transform="matrix(1.3333333,0,0,-1.3333333,0,66.078667)"><g
       id="g10"
       transform="translate(4.895,11.423)"><g
         id="g12"><g
           id="g14"><g
             id="g16"><path
               d="M 4.6963,0 C 4.6963,2.59372 2.59372,4.6963 0,4.6963 -2.59372,4.6963 -4.6963,2.59372 -4.6963,0 c 0,-2.59372 2.10258,-4.6963 4.6963,-4.6963 2.59372,0 4.6963,2.10258 4.6963,4.6963 z"
               style="fill:none;stroke:#000000;stroke-width:0.3985;stroke-linecap:butt;stroke-linejoin:miter;stroke-miterlimit:10;stroke-dasharray:none;stroke-opacity:1"
               id="path18" /><g
               id="g20"><g
                 id="g22" /></g></g><g
             id="g24"><path
               d="m 61.38992,28.3468 c 0,2.59374 -2.10258,4.69632 -4.6963,4.69632 -2.59374,0 -4.69632,-2.10258 -4.69632,-4.69632 0,-2.59373 2.10258,-4.69632 4.69632,-4.69632 2.59372,0 4.6963,2.10259 4.6963,4.69632 z"
               style="fill:none;stroke:#000000;stroke-width:0.3985;stroke-linecap:butt;stroke-linejoin:miter;stroke-miterlimit:10;stroke-dasharray:none;stroke-opacity:1"
               id="path26" /><g
               id="g28"
               transform="translate(56.693,28.346)"><g
                 id="g30" /><g
                 id="g32"
                 transform="translate(-56.693,-28.346)" /></g></g><path
             d="M 4.3784,2.18915 52.3152,26.15764"
             style="fill:none;stroke:#000000;stroke-width:0.3985;stroke-linecap:butt;stroke-linejoin:miter;stroke-miterlimit:10;stroke-dasharray:none;stroke-opacity:1"
             id="path34" /><g
             id="g36"><g
               id="g38"
               transform="matrix(0.89436,0.44717,-0.44717,0.89436,6.428,7.149)"><g
                 id="g40"><g
                   id="g42"
                   transform="translate(-11.323,-18.572)"><text
                     transform="matrix(1,0,0,-1,11.323,18.572)"
                     style="font-variant:normal;font-weight:normal;font-size:9.9626px;font-family:CMR10;-inkscape-font-specification:CMR10;writing-mode:lr-tb;fill:#000000;fill-opacity:1;fill-rule:nonzero;stroke:none"
                     id="text46"><tspan
                       x="0 5.5352206 8.3028307 12.23208 16.106535 21.087835 26.623056 31.050436 38.795361 41.562969"
                       y="0"
                       sodipodi:role="line"
                       id="tspan44">distanceis</tspan></text><g
                     id="g48"
                     transform="translate(11.323,18.572)" /></g></g><g
                 id="g50"
                 transform="translate(-6.428,-7.149)" /></g></g><g
             id="g52"><g
               id="g54"
               transform="matrix(0.89436,0.44717,-0.44717,0.89436,11.754,-5.236)"><g
                 id="g56"><g
                   id="g58"
                   transform="translate(-16.649,-6.187)"><text
                     transform="matrix(1,0,0,-1,16.649,6.187)"
                     style="font-variant:normal;font-weight:normal;font-size:9.9626px;font-family:CMR10;-inkscape-font-specification:CMR10;writing-mode:lr-tb;fill:#000000;fill-opacity:1;fill-rule:nonzero;stroke:none"
                     id="text62"><tspan
                       x="0 4.9812999 9.9625998 12.73021 17.71151 22.69281 27.67411 32.655411 37.636711 43.171932"
                       y="0"
                       sodipodi:role="line"
                       id="tspan60">63.57062pt</tspan></text><g
                     id="g64"
                     transform="translate(16.649,6.187)" /></g></g><g
                 id="g66"
                 transform="translate(-11.754,5.236)" /></g></g></g></g></g></g></svg>
