<?xml version="1.0" encoding="UTF-8" standalone="no"?>
<!-- Created with Inkscape (http://www.inkscape.org/) -->

<svg
   version="1.1"
   id="svg2"
   xml:space="preserve"
   width="66.835999"
   height="97.277336"
   viewBox="0 0 66.835999 97.277336"
   sodipodi:docname="main.pdf"
   xmlns:inkscape="http://www.inkscape.org/namespaces/inkscape"
   xmlns:sodipodi="http://sodipodi.sourceforge.net/DTD/sodipodi-0.dtd"
   xmlns="http://www.w3.org/2000/svg"
   xmlns:svg="http://www.w3.org/2000/svg"><defs
     id="defs6" /><sodipodi:namedview
     id="namedview4"
     pagecolor="#ffffff"
     bordercolor="#666666"
     borderopacity="1.0"
     inkscape:pageshadow="2"
     inkscape:pageopacity="0.0"
     inkscape:pagecheckerboard="0" /><g
     id="g8"
     inkscape:groupmode="layer"
     inkscape:label="main"
     transform="matrix(1.3333333,0,0,-1.3333333,0,97.277333)"><g
       id="g10"
       transform="translate(7.73,9.286)"><g
         id="g12"><g
           id="g14"><path
             d="M 0.08984,56.24426 2.83484,42.5202 -2.83484,28.3468 2.83484,14.17339 0.08984,0.44934"
             style="fill:none;stroke:#000000;stroke-width:0.3985;stroke-linecap:butt;stroke-linejoin:miter;stroke-miterlimit:10;stroke-dasharray:none;stroke-opacity:1"
             id="path16" /><g
             id="g18"
             transform="matrix(-0.1961,0.98053,-0.98053,-0.1961,0.08986,56.24426)"><g
               id="g20"><path
                 d="M -1.19551,1.59401 C -1.09587,0.99626 0,0.09961 0.29886,0 0,-0.09961 -1.09587,-0.99626 -1.19551,-1.59401"
                 style="fill:none;stroke:#000000;stroke-width:0.31879;stroke-linecap:round;stroke-linejoin:round;stroke-miterlimit:10;stroke-dasharray:none;stroke-opacity:1"
                 id="path22" /></g></g><g
             id="g24"
             transform="matrix(-0.1961,-0.98053,0.98053,-0.1961,0.08986,0.44934)"><g
               id="g26"><path
                 d="M -1.19551,1.59401 C -1.09587,0.99626 0,0.09961 0.29886,0 0,-0.09961 -1.09587,-0.99626 -1.19551,-1.59401"
                 style="fill:none;stroke:#000000;stroke-width:0.31879;stroke-linecap:round;stroke-linejoin:round;stroke-miterlimit:10;stroke-dasharray:none;stroke-opacity:1"
                 id="path28" /></g></g><g
             id="g30"><g
               id="g32"><path
                 d="m 4.6963,56.69362 c 0,2.59372 -2.10258,4.6963 -4.6963,4.6963 -2.59372,0 -4.6963,-2.10258 -4.6963,-4.6963 0,-2.59374 2.10258,-4.69632 4.6963,-4.69632 2.59372,0 4.6963,2.10258 4.6963,4.69632 z"
                 style="fill:none;stroke:#ff0000;stroke-width:0.3985;stroke-linecap:butt;stroke-linejoin:miter;stroke-miterlimit:10;stroke-dasharray:none;stroke-opacity:1"
                 id="path34" /></g><g
               id="g36"
               transform="translate(0,56.693)"><g
                 id="g38" /><g
                 id="g40"
                 transform="translate(0,-56.693)" /></g></g><g
             id="g42"><g
               id="g44"><path
                 d="m 7.53116,42.5202 c 0,2.59374 -2.10259,4.69632 -4.69632,4.69632 -2.59374,0 -4.69631,-2.10258 -4.69631,-4.69632 0,-2.59373 2.10257,-4.69632 4.69631,-4.69632 2.59373,0 4.69632,2.10259 4.69632,4.69632 z"
                 style="fill:none;stroke:#ff0000;stroke-width:0.3985;stroke-linecap:butt;stroke-linejoin:miter;stroke-miterlimit:10;stroke-dasharray:none;stroke-opacity:1"
                 id="path46" /></g><g
               id="g48"
               transform="translate(2.835,42.52)"><g
                 id="g50" /><g
                 id="g52"
                 transform="translate(-2.835,-42.52)" /></g></g><g
             id="g54"><g
               id="g56"><path
                 d="m 1.86147,28.3468 c 0,2.59374 -2.10257,4.69632 -4.69631,4.69632 -2.59373,0 -4.69632,-2.10258 -4.69632,-4.69632 0,-2.59373 2.10259,-4.69632 4.69632,-4.69632 2.59374,0 4.69631,2.10259 4.69631,4.69632 z"
                 style="fill:none;stroke:#ff0000;stroke-width:0.3985;stroke-linecap:butt;stroke-linejoin:miter;stroke-miterlimit:10;stroke-dasharray:none;stroke-opacity:1"
                 id="path58" /></g><g
               id="g60"
               transform="translate(-2.835,28.347)"><g
                 id="g62" /><g
                 id="g64"
                 transform="translate(2.835,-28.347)" /></g></g><g
             id="g66"><g
               id="g68"><path
                 d="m 7.53116,14.17339 c 0,2.59373 -2.10259,4.69631 -4.69632,4.69631 -2.59374,0 -4.69631,-2.10258 -4.69631,-4.69631 0,-2.59372 2.10257,-4.69632 4.69631,-4.69632 2.59373,0 4.69632,2.1026 4.69632,4.69632 z"
                 style="fill:none;stroke:#ff0000;stroke-width:0.3985;stroke-linecap:butt;stroke-linejoin:miter;stroke-miterlimit:10;stroke-dasharray:none;stroke-opacity:1"
                 id="path70" /></g><g
               id="g72"
               transform="translate(2.835,14.173)"><g
                 id="g74" /><g
                 id="g76"
                 transform="translate(-2.835,-14.173)" /></g></g><g
             id="g78"><g
               id="g80"><path
                 d="M 4.6963,0 C 4.6963,2.59372 2.59372,4.6963 0,4.6963 -2.59372,4.6963 -4.6963,2.59372 -4.6963,0 c 0,-2.59372 2.10258,-4.6963 4.6963,-4.6963 2.59372,0 4.6963,2.10258 4.6963,4.6963 z"
                 style="fill:none;stroke:#ff0000;stroke-width:0.3985;stroke-linecap:butt;stroke-linejoin:miter;stroke-miterlimit:10;stroke-dasharray:none;stroke-opacity:1"
                 id="path82" /></g><g
               id="g84"><g
                 id="g86" /></g></g><g
             id="g88"><g
               id="g90"><path
                 d="M 14.49612,49.91376 H 42.19746 V 63.47347 H 14.49612 Z"
                 style="fill:#fff200;fill-opacity:1;fill-rule:nonzero;stroke:#ff0000;stroke-width:0.3985;stroke-linecap:butt;stroke-linejoin:miter;stroke-miterlimit:10;stroke-dasharray:none;stroke-opacity:1"
                 id="path92" /></g><g
               id="g94"
               transform="translate(17.817,53.234)"><g
                 id="g96"><g
                   id="g98"
                   transform="translate(-25.547,-62.52)"><text
                     transform="matrix(1,0,0,-1,25.547,62.52)"
                     style="font-variant:normal;font-weight:normal;font-size:9.9626px;font-family:CMR10;-inkscape-font-specification:CMR10;writing-mode:lr-tb;fill:#000000;fill-opacity:1;fill-rule:nonzero;stroke:none"
                     id="text102"><tspan
                       x="0 4.4273796 9.408679 12.17629 17.157589"
                       y="0"
                       sodipodi:role="line"
                       id="tspan100">color</tspan></text><g
                     id="g104"
                     transform="translate(25.547,62.52)" /></g></g><g
                 id="g106"
                 transform="translate(-17.817,-53.234)" /></g></g><g
             id="g108"><path
               d="m 37.43393,0 c 0,5.01872 -4.06839,9.08713 -9.08713,9.08713 -5.01874,0 -9.08713,-4.06841 -9.08713,-9.08713 0,-5.01872 4.06839,-9.08713 9.08713,-9.08713 5.01874,0 9.08713,4.06841 9.08713,9.08713 z"
               style="fill:none;stroke:#000000;stroke-width:0.3985;stroke-linecap:butt;stroke-linejoin:miter;stroke-miterlimit:10;stroke-dasharray:none;stroke-opacity:1"
               id="path110" /><g
               id="g112"
               transform="translate(25.579,-3.459)"><g
                 id="g114"><g
                   id="g116"
                   transform="translate(-33.309,-5.827)"><text
                     transform="matrix(1,0,0,-1,33.309,5.827)"
                     style="font-variant:normal;font-weight:normal;font-size:9.9626px;font-family:CMR10;-inkscape-font-specification:CMR10;writing-mode:lr-tb;fill:#000000;fill-opacity:1;fill-rule:nonzero;stroke:none"
                     id="text120"><tspan
                       x="0"
                       y="0"
                       id="tspan118">d</tspan></text><g
                     id="g122"
                     transform="translate(33.309,5.827)" /></g></g><g
                 id="g124"
                 transform="translate(-25.579,3.459)" /></g></g><path
             d="M 28.3468,9.74466 V 49.25623"
             style="fill:none;stroke:#000000;stroke-width:0.3985;stroke-linecap:butt;stroke-linejoin:miter;stroke-miterlimit:10;stroke-dasharray:none;stroke-opacity:1"
             id="path126" /><g
             id="g128"
             transform="rotate(-90,19.04573,-9.30107)"><g
               id="g130"><path
                 d="M -1.19551,1.59401 C -1.09587,0.99626 0,0.09961 0.29886,0 0,-0.09961 -1.09587,-0.99626 -1.19551,-1.59401"
                 style="fill:none;stroke:#000000;stroke-width:0.31879;stroke-linecap:round;stroke-linejoin:round;stroke-miterlimit:10;stroke-dasharray:none;stroke-opacity:1"
                 id="path132" /></g></g><g
             id="g134"
             transform="rotate(90,-10.454715,38.801515)"><g
               id="g136"><path
                 d="M -1.19551,1.59401 C -1.09587,0.99626 0,0.09961 0.29886,0 0,-0.09961 -1.09587,-0.99626 -1.19551,-1.59401"
                 style="fill:none;stroke:#000000;stroke-width:0.31879;stroke-linecap:round;stroke-linejoin:round;stroke-miterlimit:10;stroke-dasharray:none;stroke-opacity:1"
                 id="path138" /></g></g><g
             id="g140"><g
               id="g142"
               transform="rotate(90,9.831,28.954)"><g
                 id="g144"><g
                   id="g146"
                   transform="translate(-46.515,-28.409)"><text
                     transform="matrix(1,0,0,-1,46.515,28.409)"
                     style="font-variant:normal;font-weight:normal;font-size:9.9626px;font-family:CMR10;-inkscape-font-specification:CMR10;writing-mode:lr-tb;fill:#000000;fill-opacity:1;fill-rule:nonzero;stroke:none"
                     id="text150"><tspan
                       x="0 2.7676103 7.7489104 13.563084 17.990463"
                       y="0"
                       sodipodi:role="line"
                       id="tspan148">label</tspan></text><g
                     id="g152"
                     transform="translate(46.515,28.409)" /></g></g><g
                 id="g154"
                 transform="translate(-38.785,-19.123)" /></g></g></g></g></g></g></svg>
