<?xml version="1.0" encoding="UTF-8" standalone="no"?>
<!-- Created with Inkscape (http://www.inkscape.org/) -->

<svg
   version="1.1"
   id="svg2"
   width="121.21067"
   height="310.18668"
   viewBox="0 0 121.21067 310.18668"
   sodipodi:docname="main.pdf"
   xmlns:inkscape="http://www.inkscape.org/namespaces/inkscape"
   xmlns:sodipodi="http://sodipodi.sourceforge.net/DTD/sodipodi-0.dtd"
   xmlns="http://www.w3.org/2000/svg"
   xmlns:svg="http://www.w3.org/2000/svg">
  <defs
     id="defs6" />
  <sodipodi:namedview
     id="namedview4"
     pagecolor="#ffffff"
     bordercolor="#000000"
     borderopacity="0.25"
     inkscape:showpageshadow="2"
     inkscape:pageopacity="0.0"
     inkscape:pagecheckerboard="0"
     inkscape:deskcolor="#d1d1d1" />
  <g
     id="g8"
     inkscape:groupmode="layer"
     inkscape:label="main"
     transform="matrix(1.3333333,0,0,-1.3333333,0,310.18667)">
    <g
       id="g10"
       transform="translate(2.934,2.934)">
      <g
         id="g12">
        <g
           id="g14">
          <g
             id="g16">
            <path
               d="M -2.83484,0 H 87.87527 M -2.83484,28.3468 H 87.87527 M -2.83484,56.69362 h 90.71011 m -90.71011,28.3468 h 90.71011 m -90.71011,28.34682 h 90.71011 m -90.71011,28.3468 h 90.71011 m -90.71011,28.34682 h 90.71011 m -90.71011,28.3468 H 87.87527 M -2.83484,226.77448 H 87.87527 M 0,-2.83484 V 229.60931 M 28.3468,-2.83484 V 229.60931 M 56.69362,-2.83484 V 229.60931 M 85.04042,-2.83484 v 232.44415"
               style="fill:none;stroke:#808080;stroke-width:0.19925;stroke-linecap:butt;stroke-linejoin:miter;stroke-miterlimit:10;stroke-dasharray:none;stroke-opacity:1"
               id="path18" />
          </g>
          <path
             d="m 0,198.42766 85.04042,28.34682"
             style="fill:none;stroke:#000000;stroke-width:0.79701;stroke-linecap:butt;stroke-linejoin:miter;stroke-miterlimit:10;stroke-dasharray:none;stroke-opacity:1"
             id="path20" />
          <path
             d="m 0,170.08086 h 28.3468 l 28.34682,28.3468 h 28.3468"
             style="fill:none;stroke:#000000;stroke-width:0.79701;stroke-linecap:butt;stroke-linejoin:miter;stroke-miterlimit:10;stroke-dasharray:none;stroke-opacity:1"
             id="path22" />
          <path
             d="m 0,141.73404 h 42.5202 v 14.1734 h 42.5202 v 14.1734"
             style="fill:none;stroke:#000000;stroke-width:0.79701;stroke-linecap:butt;stroke-linejoin:miter;stroke-miterlimit:10;stroke-dasharray:none;stroke-opacity:1"
             id="path24" />
          <path
             d="m 0,113.38724 c 35.0593,-0.95819 57.56766,6.54495 85.04042,28.3468"
             style="fill:none;stroke:#000000;stroke-width:0.79701;stroke-linecap:butt;stroke-linejoin:miter;stroke-miterlimit:10;stroke-dasharray:none;stroke-opacity:1"
             id="path26" />
          <path
             d="m 0,85.04042 c 24.80101,24.80103 60.2394,3.54579 85.04042,28.34682"
             style="fill:none;stroke:#000000;stroke-width:0.79701;stroke-linecap:butt;stroke-linejoin:miter;stroke-miterlimit:10;stroke-dasharray:none;stroke-opacity:1"
             id="path28" />
          <path
             d="m 0,56.69362 c 28.3468,0 56.69362,28.3468 85.04042,28.3468"
             style="fill:none;stroke:#000000;stroke-width:0.79701;stroke-linecap:butt;stroke-linejoin:miter;stroke-miterlimit:10;stroke-dasharray:none;stroke-opacity:1"
             id="path30" />
          <path
             d="m 0,0 85.04042,8.50412 v 8.50412 H 0 c 32.8389,6.211 51.6219,8.0901 85.04042,8.50412 C 85.04042,53.85918 0,5.66968 0,34.01648 l 85.04042,8.50413"
             style="fill:none;stroke:#000000;stroke-width:0.79701;stroke-linecap:butt;stroke-linejoin:miter;stroke-miterlimit:10;stroke-dasharray:none;stroke-opacity:1"
             id="path32" />
        </g>
      </g>
    </g>
  </g>
</svg>
