<?xml version="1.0" encoding="UTF-8" standalone="no"?>
<!-- Created with Inkscape (http://www.inkscape.org/) -->

<svg
   version="1.1"
   id="svg2"
   xml:space="preserve"
   width="49.456001"
   height="98.533333"
   viewBox="0 0 49.456001 98.533333"
   sodipodi:docname="main.pdf"
   xmlns:inkscape="http://www.inkscape.org/namespaces/inkscape"
   xmlns:sodipodi="http://sodipodi.sourceforge.net/DTD/sodipodi-0.dtd"
   xmlns="http://www.w3.org/2000/svg"
   xmlns:svg="http://www.w3.org/2000/svg"><defs
     id="defs6" /><sodipodi:namedview
     id="namedview4"
     pagecolor="#ffffff"
     bordercolor="#666666"
     borderopacity="1.0"
     inkscape:pageshadow="2"
     inkscape:pageopacity="0.0"
     inkscape:pagecheckerboard="0" /><g
     id="g8"
     inkscape:groupmode="layer"
     inkscape:label="main"
     transform="matrix(1.3333333,0,0,-1.3333333,0,98.533333)"><g
       id="g10"
       transform="translate(5.811,31.281)"><g
         id="g12"><g
           id="g14"><g
             id="g16"><g
               id="g18"><g
                 id="g20"
                 transform="translate(-2.49,-2.145)"><g
                   id="g22"><g
                     id="g24"
                     transform="translate(-3.321,-29.136)"><text
                       transform="matrix(1,0,0,-1,3.321,29.136)"
                       style="font-variant:normal;font-weight:normal;font-size:9.9626px;font-family:CMR10;-inkscape-font-specification:CMR10;writing-mode:lr-tb;fill:#bfbfbf;fill-opacity:1;fill-rule:nonzero;stroke:none"
                       id="text28"><tspan
                         x="0"
                         y="0"
                         id="tspan26">o</tspan></text><g
                       id="g30"
                       transform="translate(3.321,29.136)" /></g></g><g
                   id="g32"
                   transform="translate(2.49,2.145)" /></g></g><g
               id="g34"><path
                 d="m -2.83484,-28.3468 h 34.0165 M -2.83484,0 h 34.0165 m -34.0165,28.3468 h 34.0165 M 0,-31.18166 V 42.5202 M 28.3468,-31.18166 V 42.5202"
                 style="fill:none;stroke:#bfbfbf;stroke-width:0.19925;stroke-linecap:butt;stroke-linejoin:miter;stroke-miterlimit:10;stroke-dasharray:none;stroke-opacity:1"
                 id="path36" /></g><g
               id="g38"><path
                 d="M 0,-28.3468 28.3468,28.3468 V 0"
                 style="fill:none;stroke:#bfbfbf;stroke-width:0.3985;stroke-linecap:butt;stroke-linejoin:miter;stroke-miterlimit:10;stroke-dasharray:0.3985, 1.99255;stroke-dashoffset:0;stroke-opacity:1"
                 id="path40" /></g><path
               d="m 0,-28.3468 c 4.97461,0 9.86531,1.3106 13.7765,3.56857"
               style="fill:none;stroke:#bfbfbf;stroke-width:0.3985;stroke-linecap:butt;stroke-linejoin:miter;stroke-miterlimit:10;stroke-dasharray:none;stroke-opacity:1"
               id="path42" /><g
               id="g44"
               transform="matrix(0.86603,0.49997,-0.49997,0.86603,13.7765,-24.77823)"><g
                 id="g46"><path
                   d="M -1.19551,1.59401 C -1.09587,0.99626 0,0.09961 0.29886,0 0,-0.09961 -1.09587,-0.99626 -1.19551,-1.59401"
                   style="fill:none;stroke:#bfbfbf;stroke-width:0.31879;stroke-linecap:round;stroke-linejoin:round;stroke-miterlimit:10;stroke-dasharray:none;stroke-opacity:1"
                   id="path48" /></g></g><path
               d="M 28.3468,28.3468 C 23.37245,33.32115 17.171,36.90207 10.81827,38.60391"
               style="fill:none;stroke:#bfbfbf;stroke-width:0.3985;stroke-linecap:butt;stroke-linejoin:miter;stroke-miterlimit:10;stroke-dasharray:none;stroke-opacity:1"
               id="path50" /><g
               id="g52"
               transform="matrix(-0.96593,0.25874,-0.25874,-0.96593,10.81827,38.60391)"><g
                 id="g54"><path
                   d="M -1.19551,1.59401 C -1.09587,0.99626 0,0.09961 0.29886,0 0,-0.09961 -1.09587,-0.99626 -1.19551,-1.59401"
                   style="fill:none;stroke:#bfbfbf;stroke-width:0.31879;stroke-linecap:round;stroke-linejoin:round;stroke-miterlimit:10;stroke-dasharray:none;stroke-opacity:1"
                   id="path56" /></g></g><path
               d="m 28.3468,0 c 0,4.97461 -1.3106,9.86531 -3.56857,13.7765"
               style="fill:none;stroke:#bfbfbf;stroke-width:0.3985;stroke-linecap:butt;stroke-linejoin:miter;stroke-miterlimit:10;stroke-dasharray:none;stroke-opacity:1"
               id="path58" /><g
               id="g60"
               transform="matrix(-0.49997,0.86603,-0.86603,-0.49997,24.77823,13.7765)"><g
                 id="g62"><path
                   d="M -1.19551,1.59401 C -1.09587,0.99626 0,0.09961 0.29886,0 0,-0.09961 -1.09587,-0.99626 -1.19551,-1.59401"
                   style="fill:none;stroke:#bfbfbf;stroke-width:0.31879;stroke-linecap:round;stroke-linejoin:round;stroke-miterlimit:10;stroke-dasharray:none;stroke-opacity:1"
                   id="path64" /></g></g></g><path
             d="M 14.17339,-24.5491 10.3757,38.7225 24.5491,14.17339"
             style="fill:none;stroke:#000000;stroke-width:0.3985;stroke-linecap:butt;stroke-linejoin:miter;stroke-miterlimit:10;stroke-dasharray:none;stroke-opacity:1"
             id="path66" /></g></g></g></g></svg>
