<?xml version="1.0" encoding="UTF-8" standalone="no"?>
<!-- Created with Inkscape (http://www.inkscape.org/) -->

<svg
   version="1.1"
   id="svg2"
   xml:space="preserve"
   width="41.84"
   height="79.636002"
   viewBox="0 0 41.84 79.636002"
   sodipodi:docname="main.pdf"
   xmlns:inkscape="http://www.inkscape.org/namespaces/inkscape"
   xmlns:sodipodi="http://sodipodi.sourceforge.net/DTD/sodipodi-0.dtd"
   xmlns="http://www.w3.org/2000/svg"
   xmlns:svg="http://www.w3.org/2000/svg"><defs
     id="defs6" /><sodipodi:namedview
     id="namedview4"
     pagecolor="#ffffff"
     bordercolor="#666666"
     borderopacity="1.0"
     inkscape:pageshadow="2"
     inkscape:pageopacity="0.0"
     inkscape:pagecheckerboard="0" /><g
     id="g8"
     inkscape:groupmode="layer"
     inkscape:label="main"
     transform="matrix(1.3333333,0,0,-1.3333333,0,79.636)"><g
       id="g10"
       transform="translate(1.517,1.517)"><g
         id="g12"><g
           id="g14"><g
             id="g16"><path
               d="M -1.4174,0 H 29.76422 M -1.4174,14.17339 H 29.76422 M -1.4174,28.3468 H 29.76422 M -1.4174,42.5202 H 29.76422 M -1.4174,56.69362 H 29.76422 M 0,-1.4174 V 58.11102 M 14.17339,-1.4174 V 58.11102 M 28.3468,-1.4174 v 59.52842"
               style="fill:none;stroke:#bfbfbf;stroke-width:0.19925;stroke-linecap:butt;stroke-linejoin:miter;stroke-miterlimit:10;stroke-dasharray:none;stroke-opacity:1"
               id="path18" /></g><path
             d="M 0,42.5202 28.3468,56.69362"
             style="fill:none;stroke:#000000;stroke-width:0.3985;stroke-linecap:butt;stroke-linejoin:miter;stroke-miterlimit:10;stroke-dasharray:none;stroke-opacity:1"
             id="path20" /><path
             d="M 0,28.3468 27.93694,42.31528"
             style="fill:none;stroke:#000000;stroke-width:0.3985;stroke-linecap:butt;stroke-linejoin:miter;stroke-miterlimit:10;stroke-dasharray:none;stroke-opacity:1"
             id="path22" /><g
             id="g24"
             transform="matrix(0.89438,0.44717,-0.44717,0.89438,27.93692,42.31526)"><g
               id="g26"><path
                 d="M -1.19551,1.59401 C -1.09587,0.99626 0,0.09961 0.29886,0 0,-0.09961 -1.09587,-0.99626 -1.19551,-1.59401"
                 style="fill:none;stroke:#000000;stroke-width:0.31879;stroke-linecap:round;stroke-linejoin:round;stroke-miterlimit:10;stroke-dasharray:none;stroke-opacity:1"
                 id="path28" /></g></g><path
             d="M 0.26729,14.30704 28.0795,28.21317"
             style="fill:none;stroke:#000000;stroke-width:0.3985;stroke-linecap:butt;stroke-linejoin:miter;stroke-miterlimit:10;stroke-dasharray:none;stroke-opacity:1"
             id="path30" /><g
             id="g32"
             transform="matrix(-0.89436,-0.44717,0.44717,-0.89436,0.26729,14.30704)"><g
               id="g34"><path
                 d="M 0.09961,-2.5903 V 2.5903"
                 style="fill:none;stroke:#000000;stroke-width:0.3985;stroke-linecap:square;stroke-linejoin:miter;stroke-miterlimit:10;stroke-dasharray:none;stroke-opacity:1"
                 id="path36" /></g></g><g
             id="g38"
             transform="matrix(0.89436,0.44717,-0.44717,0.89436,28.0795,28.21317)"><g
               id="g40"><path
                 d="M 0.09961,-2.5903 V 2.5903"
                 style="fill:none;stroke:#000000;stroke-width:0.3985;stroke-linecap:square;stroke-linejoin:miter;stroke-miterlimit:10;stroke-dasharray:none;stroke-opacity:1"
                 id="path42" /></g></g><path
             d="M 1.21178,0.60587 27.93694,13.96846"
             style="fill:none;stroke:#000000;stroke-width:0.3985;stroke-linecap:butt;stroke-linejoin:miter;stroke-miterlimit:10;stroke-dasharray:none;stroke-opacity:1"
             id="path44" /><g
             id="g46"
             transform="matrix(-0.89436,-0.44717,0.44717,-0.89436,3.65318,1.82655)"><g
               id="g48"><path
                 d="M -1.19551,1.59401 C -1.09587,0.99626 0,0.09961 0.29886,0 0,-0.09961 -1.09587,-0.99626 -1.19551,-1.59401"
                 style="fill:none;stroke:#000000;stroke-width:0.31879;stroke-linecap:round;stroke-linejoin:round;stroke-miterlimit:10;stroke-dasharray:none;stroke-opacity:1"
                 id="path50" /></g></g><g
             id="g52"
             transform="matrix(-0.89436,-0.44717,0.44717,-0.89436,2.03152,1.01575)"><g
               id="g54"><path
                 d="M -1.19551,1.59401 C -1.09587,0.99626 0,0.09961 0.29886,0 0,-0.09961 -1.09587,-0.99626 -1.19551,-1.59401"
                 style="fill:none;stroke:#000000;stroke-width:0.31879;stroke-linecap:round;stroke-linejoin:round;stroke-miterlimit:10;stroke-dasharray:none;stroke-opacity:1"
                 id="path56" /></g></g><g
             id="g58"
             transform="matrix(-0.89436,-0.44717,0.44717,-0.89436,1.21179,0.60588)"><g
               id="g60"><path
                 d="M 1.19551,1.59401 C 1.09587,0.99626 0,0.09961 -0.29886,0 0,-0.09961 1.09587,-0.99626 1.19551,-1.59401"
                 style="fill:none;stroke:#000000;stroke-width:0.31879;stroke-linecap:round;stroke-linejoin:round;stroke-miterlimit:10;stroke-dasharray:none;stroke-opacity:1"
                 id="path62" /></g></g><g
             id="g64"
             transform="matrix(0.89438,0.44717,-0.44717,0.89438,26.31525,13.15764)"><g
               id="g66"><path
                 d="M -1.19551,1.59401 C -1.09587,0.99626 0,0.09961 0.29886,0 0,-0.09961 -1.09587,-0.99626 -1.19551,-1.59401"
                 style="fill:none;stroke:#000000;stroke-width:0.31879;stroke-linecap:round;stroke-linejoin:round;stroke-miterlimit:10;stroke-dasharray:none;stroke-opacity:1"
                 id="path68" /></g></g><g
             id="g70"
             transform="matrix(0.89438,0.44717,-0.44717,0.89438,27.93692,13.96844)"><g
               id="g72"><path
                 d="M -1.19551,1.59401 C -1.09587,0.99626 0,0.09961 0.29886,0 0,-0.09961 -1.09587,-0.99626 -1.19551,-1.59401"
                 style="fill:none;stroke:#000000;stroke-width:0.31879;stroke-linecap:round;stroke-linejoin:round;stroke-miterlimit:10;stroke-dasharray:none;stroke-opacity:1"
                 id="path74" /></g></g></g></g></g></g></svg>
