<?xml version="1.0" encoding="UTF-8" standalone="no"?>
<!-- Created with Inkscape (http://www.inkscape.org/) -->

<svg
   version="1.1"
   id="svg2"
   xml:space="preserve"
   width="98.267998"
   height="166.29868"
   viewBox="0 0 98.267998 166.29868"
   sodipodi:docname="main.pdf"
   xmlns:inkscape="http://www.inkscape.org/namespaces/inkscape"
   xmlns:sodipodi="http://sodipodi.sourceforge.net/DTD/sodipodi-0.dtd"
   xmlns="http://www.w3.org/2000/svg"
   xmlns:svg="http://www.w3.org/2000/svg"><defs
     id="defs6"><clipPath
       clipPathUnits="userSpaceOnUse"
       id="clipPath20"><path
         d="m 22.67752,22.67752 v 124.7258 H 96.37897 V 22.67752 Z"
         id="path18" /></clipPath></defs><sodipodi:namedview
     id="namedview4"
     pagecolor="#ffffff"
     bordercolor="#666666"
     borderopacity="1.0"
     inkscape:pageshadow="2"
     inkscape:pageopacity="0.0"
     inkscape:pagecheckerboard="0" /><g
     id="g8"
     inkscape:groupmode="layer"
     inkscape:label="main"
     transform="matrix(1.3333333,0,0,-1.3333333,0,166.29867)"><g
       id="g10"
       transform="translate(-22.677,-22.677)"><g
         id="g12"><g
           id="g14"><g
             id="g16"
             clip-path="url(#clipPath20)"><g
               id="g22"><path
                 d="M 0,0 H 113.38724 M 0,28.3468 H 113.38724 M 0,56.69362 H 113.38724 M 0,85.04042 H 113.38724 M 0,113.38724 H 113.38724 M 0,141.73404 H 113.38724 M 0,170.07089 H 113.38724 M 0,0 V 170.08086 M 28.3468,0 V 170.08086 M 56.69362,0 V 170.08086 M 85.04042,0 V 170.08086 M 113.37727,0 v 170.08086"
                 style="fill:none;stroke:#808080;stroke-width:0.19925;stroke-linecap:butt;stroke-linejoin:miter;stroke-miterlimit:10;stroke-dasharray:none;stroke-opacity:1"
                 id="path24" /></g><path
               d="m 28.3468,113.38724 56.69362,28.3468"
               style="fill:none;stroke:#000000;stroke-width:0.3985;stroke-linecap:butt;stroke-linejoin:miter;stroke-miterlimit:10;stroke-dasharray:none;stroke-opacity:1"
               id="path26" /><path
               d="M 56.69362,113.38724 28.3468,141.73404"
               style="fill:none;stroke:#000000;stroke-width:0.3985;stroke-linecap:butt;stroke-linejoin:miter;stroke-miterlimit:10;stroke-dasharray:none;stroke-opacity:1"
               id="path28" /><g
               id="g30" /><g
               id="g32" /><g
               id="g34"><g
                 id="g36"><path
                   d="m 48.65428,122.83644 c 0,0.7782 -0.63084,1.40904 -1.40903,1.40904 -0.77819,0 -1.40904,-0.63084 -1.40904,-1.40904 0,-0.77818 0.63085,-1.40904 1.40904,-1.40904 0.77819,0 1.40903,0.63086 1.40903,1.40904 z"
                   style="fill:#ff0000;fill-opacity:1;fill-rule:nonzero;stroke:none"
                   id="path38" /></g><g
                 id="g40"
                 transform="translate(47.244,122.835)"><g
                   id="g42" /><g
                   id="g44"
                   transform="translate(-47.244,-122.835)" /></g></g><g
               id="g46"><g
                 id="g48" /><g
                 id="g50"
                 transform="translate(43.28,127.852)"><g
                   id="g52"><g
                     id="g54"
                     transform="translate(-20.603,-105.175)"><text
                       transform="matrix(1,0,0,-1,20.603,105.175)"
                       style="font-variant:normal;font-weight:normal;font-size:9.9626px;font-family:CMMI10;-inkscape-font-specification:CMMI10;writing-mode:lr-tb;fill:#000000;fill-opacity:1;fill-rule:nonzero;stroke:none"
                       id="text58"><tspan
                         x="0"
                         y="0"
                         id="tspan56">E</tspan></text><g
                       id="g60"
                       transform="translate(20.603,105.175)" /></g></g><g
                   id="g62"
                   transform="translate(-43.28,-127.852)" /></g></g><path
               d="m 0,28.3468 c 184.25424,0 -85.04042,56.69362 113.38724,56.69362"
               style="fill:none;stroke:#000000;stroke-width:0.3985;stroke-linecap:butt;stroke-linejoin:miter;stroke-miterlimit:10;stroke-dasharray:none;stroke-opacity:1"
               id="path64" /><path
               d="m 28.3468,0 c 0,255.12128 56.69362,-141.73404 56.69362,113.38724"
               style="fill:none;stroke:#000000;stroke-width:0.3985;stroke-linecap:butt;stroke-linejoin:miter;stroke-miterlimit:10;stroke-dasharray:none;stroke-opacity:1"
               id="path66" /><g
               id="g68" /><g
               id="g70" /><g
               id="g72" /><g
               id="g74" /><g
               id="g76" /><g
               id="g78"><g
                 id="g80"><path
                   d="m 30.04819,28.95746 c 0,0.7782 -0.63085,1.40904 -1.40905,1.40904 -0.77818,0 -1.40902,-0.63084 -1.40902,-1.40904 0,-0.77818 0.63084,-1.40903 1.40902,-1.40903 0.7782,0 1.40905,0.63085 1.40905,1.40903 z"
                   style="fill:#ff0000;fill-opacity:1;fill-rule:nonzero;stroke:none"
                   id="path82" /></g><g
                 id="g84"
                 transform="translate(28.639,28.957)"><g
                   id="g86" /><g
                   id="g88"
                   transform="translate(-28.639,-28.957)" /></g></g><g
               id="g90"><g
                 id="g92" /><g
                 id="g94"
                 transform="translate(31.291,30.89)"><g
                   id="g96"><g
                     id="g98"
                     transform="translate(-8.614,-8.213)"><text
                       transform="matrix(1,0,0,-1,8.614,8.213)"
                       style="font-variant:normal;font-weight:normal;font-size:9.9626px;font-family:CMR10;-inkscape-font-specification:CMR10;writing-mode:lr-tb;fill:#000000;fill-opacity:1;fill-rule:nonzero;stroke:none"
                       id="text102"><tspan
                         x="0"
                         y="0"
                         id="tspan100">1</tspan></text><g
                       id="g104"
                       transform="translate(8.614,8.213)" /></g></g><g
                   id="g106"
                   transform="translate(-31.291,-30.89)" /></g></g><g
               id="g108"><g
                 id="g110"><path
                   d="m 47.93565,80.2398 c 0,0.77819 -0.63084,1.40905 -1.40902,1.40905 -0.7782,0 -1.40905,-0.63086 -1.40905,-1.40905 0,-0.77819 0.63085,-1.40904 1.40905,-1.40904 0.77818,0 1.40902,0.63085 1.40902,1.40904 z"
                   style="fill:#ff0000;fill-opacity:1;fill-rule:nonzero;stroke:none"
                   id="path112" /></g><g
                 id="g114"
                 transform="translate(46.526,80.239)"><g
                   id="g116" /><g
                   id="g118"
                   transform="translate(-46.526,-80.239)" /></g></g><g
               id="g120"><g
                 id="g122" /><g
                 id="g124"
                 transform="translate(49.178,82.172)"><g
                   id="g126"><g
                     id="g128"
                     transform="translate(-26.501,-59.495)"><text
                       transform="matrix(1,0,0,-1,26.501,59.495)"
                       style="font-variant:normal;font-weight:normal;font-size:9.9626px;font-family:CMR10;-inkscape-font-specification:CMR10;writing-mode:lr-tb;fill:#000000;fill-opacity:1;fill-rule:nonzero;stroke:none"
                       id="text132"><tspan
                         x="0"
                         y="0"
                         id="tspan130">2</tspan></text><g
                       id="g134"
                       transform="translate(26.501,59.495)" /></g></g><g
                   id="g136"
                   transform="translate(-49.178,-82.172)" /></g></g><g
               id="g138"><g
                 id="g140"><path
                   d="m 67.09583,35.43608 c 0,0.77818 -0.63086,1.40904 -1.40905,1.40904 -0.77818,0 -1.40904,-0.63086 -1.40904,-1.40904 0,-0.7782 0.63086,-1.40904 1.40904,-1.40904 0.77819,0 1.40905,0.63084 1.40905,1.40904 z"
                   style="fill:#ff0000;fill-opacity:1;fill-rule:nonzero;stroke:none"
                   id="path142" /></g><g
                 id="g144"
                 transform="translate(65.686,35.435)"><g
                   id="g146" /><g
                   id="g148"
                   transform="translate(-65.686,-35.435)" /></g></g><g
               id="g150"><g
                 id="g152" /><g
                 id="g154"
                 transform="translate(68.338,37.369)"><g
                   id="g156"><g
                     id="g158"
                     transform="translate(-45.661,-14.692)"><text
                       transform="matrix(1,0,0,-1,45.661,14.692)"
                       style="font-variant:normal;font-weight:normal;font-size:9.9626px;font-family:CMR10;-inkscape-font-specification:CMR10;writing-mode:lr-tb;fill:#000000;fill-opacity:1;fill-rule:nonzero;stroke:none"
                       id="text162"><tspan
                         x="0"
                         y="0"
                         id="tspan160">3</tspan></text><g
                       id="g164"
                       transform="translate(45.661,14.692)" /></g></g><g
                   id="g166"
                   transform="translate(-68.338,-37.369)" /></g></g><g
               id="g168"><g
                 id="g170"><path
                   d="m 60.38829,51.04704 c 0,0.7782 -0.63086,1.40905 -1.40904,1.40905 -0.7782,0 -1.40905,-0.63085 -1.40905,-1.40905 0,-0.77818 0.63085,-1.40902 1.40905,-1.40902 0.77818,0 1.40904,0.63084 1.40904,1.40902 z"
                   style="fill:#ff0000;fill-opacity:1;fill-rule:nonzero;stroke:none"
                   id="path172" /></g><g
                 id="g174"
                 transform="translate(58.978,51.046)"><g
                   id="g176" /><g
                   id="g178"
                   transform="translate(-58.978,-51.046)" /></g></g><g
               id="g180"><g
                 id="g182" /><g
                 id="g184"
                 transform="translate(61.631,52.979)"><g
                   id="g186"><g
                     id="g188"
                     transform="translate(-38.954,-30.302)"><text
                       transform="matrix(1,0,0,-1,38.954,30.302)"
                       style="font-variant:normal;font-weight:normal;font-size:9.9626px;font-family:CMR10;-inkscape-font-specification:CMR10;writing-mode:lr-tb;fill:#000000;fill-opacity:1;fill-rule:nonzero;stroke:none"
                       id="text192"><tspan
                         x="0"
                         y="0"
                         id="tspan190">4</tspan></text><g
                       id="g194"
                       transform="translate(38.954,30.302)" /></g></g><g
                   id="g196"
                   transform="translate(-61.631,-52.979)" /></g></g><g
               id="g198"><g
                 id="g200"><path
                   d="m 86.15367,84.55403 c 0,0.7782 -0.63084,1.40904 -1.40903,1.40904 -0.77819,0 -1.40904,-0.63084 -1.40904,-1.40904 0,-0.77818 0.63085,-1.40904 1.40904,-1.40904 0.77819,0 1.40903,0.63086 1.40903,1.40904 z"
                   style="fill:#ff0000;fill-opacity:1;fill-rule:nonzero;stroke:none"
                   id="path202" /></g><g
                 id="g204"
                 transform="translate(84.743,84.553)"><g
                   id="g206" /><g
                   id="g208"
                   transform="translate(-84.743,-84.553)" /></g></g><g
               id="g210"><g
                 id="g212" /><g
                 id="g214"
                 transform="translate(87.396,86.486)"><g
                   id="g216"><g
                     id="g218"
                     transform="translate(-64.719,-63.809)"><text
                       transform="matrix(1,0,0,-1,64.719,63.809)"
                       style="font-variant:normal;font-weight:normal;font-size:9.9626px;font-family:CMR10;-inkscape-font-specification:CMR10;writing-mode:lr-tb;fill:#000000;fill-opacity:1;fill-rule:nonzero;stroke:none"
                       id="text222"><tspan
                         x="0"
                         y="0"
                         id="tspan220">5</tspan></text><g
                       id="g224"
                       transform="translate(64.719,63.809)" /></g></g><g
                   id="g226"
                   transform="translate(-87.396,-86.486)" /></g></g></g></g></g></g></g></svg>
