<?xml version="1.0" encoding="UTF-8" standalone="no"?>
<!-- Created with Inkscape (http://www.inkscape.org/) -->

<svg
   version="1.1"
   id="svg2"
   xml:space="preserve"
   width="83.416"
   height="102.31333"
   viewBox="0 0 83.416 102.31333"
   sodipodi:docname="main.pdf"
   xmlns:inkscape="http://www.inkscape.org/namespaces/inkscape"
   xmlns:sodipodi="http://sodipodi.sourceforge.net/DTD/sodipodi-0.dtd"
   xmlns="http://www.w3.org/2000/svg"
   xmlns:svg="http://www.w3.org/2000/svg"><defs
     id="defs6" /><sodipodi:namedview
     id="namedview4"
     pagecolor="#ffffff"
     bordercolor="#666666"
     borderopacity="1.0"
     inkscape:pageshadow="2"
     inkscape:pageopacity="0.0"
     inkscape:pagecheckerboard="0" /><g
     id="g8"
     inkscape:groupmode="layer"
     inkscape:label="main"
     transform="matrix(1.3333333,0,0,-1.3333333,0,102.31333)"><g
       id="g10"
       transform="translate(2.934,31.281)"><g
         id="g12"><g
           id="g14"><g
             id="g16"><g
               id="g18"><path
                 d="m -2.83484,-28.3468 h 62.3633 M -2.83484,0 h 62.3633 m -62.3633,28.3468 h 62.3633 M 0,-31.18166 v 76.53672 m 28.3468,-76.53672 v 76.53672 m 28.34682,-76.53672 v 76.53672"
                 style="fill:none;stroke:#bfbfbf;stroke-width:0.19925;stroke-linecap:butt;stroke-linejoin:miter;stroke-miterlimit:10;stroke-dasharray:none;stroke-opacity:1"
                 id="path20" /></g><g
               id="g22"><path
                 d="M 0,-28.3468 28.3468,28.3468 V 0"
                 style="fill:none;stroke:#bfbfbf;stroke-width:0.3985;stroke-linecap:butt;stroke-linejoin:miter;stroke-miterlimit:10;stroke-dasharray:0.3985, 1.99255;stroke-dashoffset:0;stroke-opacity:1"
                 id="path24" /></g><path
               d="m 0,-28.3468 27.93694,13.96849"
               style="fill:none;stroke:#bfbfbf;stroke-width:0.3985;stroke-linecap:butt;stroke-linejoin:miter;stroke-miterlimit:10;stroke-dasharray:none;stroke-opacity:1"
               id="path26" /><g
               id="g28"
               transform="matrix(0.89436,0.44717,-0.44717,0.89436,27.93692,-14.37833)"><g
                 id="g30"><path
                   d="M -1.19551,1.59401 C -1.09587,0.99626 0,0.09961 0.29886,0 0,-0.09961 -1.09587,-0.99626 -1.19551,-1.59401"
                   style="fill:none;stroke:#bfbfbf;stroke-width:0.31879;stroke-linecap:round;stroke-linejoin:round;stroke-miterlimit:10;stroke-dasharray:none;stroke-opacity:1"
                   id="path32" /></g></g><path
               d="M 28.3468,28.3468 56.28375,42.31528"
               style="fill:none;stroke:#bfbfbf;stroke-width:0.3985;stroke-linecap:butt;stroke-linejoin:miter;stroke-miterlimit:10;stroke-dasharray:none;stroke-opacity:1"
               id="path34" /><g
               id="g36"
               transform="matrix(0.89438,0.44717,-0.44717,0.89438,56.28374,42.31526)"><g
                 id="g38"><path
                   d="M -1.19551,1.59401 C -1.09587,0.99626 0,0.09961 0.29886,0 0,-0.09961 -1.09587,-0.99626 -1.19551,-1.59401"
                   style="fill:none;stroke:#bfbfbf;stroke-width:0.31879;stroke-linecap:round;stroke-linejoin:round;stroke-miterlimit:10;stroke-dasharray:none;stroke-opacity:1"
                   id="path40" /></g></g><path
               d="M 28.3468,0 56.28375,13.96846"
               style="fill:none;stroke:#bfbfbf;stroke-width:0.3985;stroke-linecap:butt;stroke-linejoin:miter;stroke-miterlimit:10;stroke-dasharray:none;stroke-opacity:1"
               id="path42" /><g
               id="g44"
               transform="matrix(0.89438,0.44717,-0.44717,0.89438,56.28374,13.96844)"><g
                 id="g46"><path
                   d="M -1.19551,1.59401 C -1.09587,0.99626 0,0.09961 0.29886,0 0,-0.09961 -1.09587,-0.99626 -1.19551,-1.59401"
                   style="fill:none;stroke:#bfbfbf;stroke-width:0.31879;stroke-linecap:round;stroke-linejoin:round;stroke-miterlimit:10;stroke-dasharray:none;stroke-opacity:1"
                   id="path48" /></g></g></g><path
             d="M 28.3468,-14.1734 56.69362,42.5202 V 14.17339"
             style="fill:none;stroke:#000000;stroke-width:0.3985;stroke-linecap:butt;stroke-linejoin:miter;stroke-miterlimit:10;stroke-dasharray:none;stroke-opacity:1"
             id="path50" /></g></g></g></g></svg>
