<?xml version="1.0" encoding="UTF-8" standalone="no"?>
<!-- Created with Inkscape (http://www.inkscape.org/) -->

<svg
   version="1.1"
   id="svg2"
   xml:space="preserve"
   width="25.210667"
   height="50.155998"
   viewBox="0 0 25.210667 50.155998"
   sodipodi:docname="main.pdf"
   xmlns:inkscape="http://www.inkscape.org/namespaces/inkscape"
   xmlns:sodipodi="http://sodipodi.sourceforge.net/DTD/sodipodi-0.dtd"
   xmlns="http://www.w3.org/2000/svg"
   xmlns:svg="http://www.w3.org/2000/svg"><defs
     id="defs6" /><sodipodi:namedview
     id="namedview4"
     pagecolor="#ffffff"
     bordercolor="#666666"
     borderopacity="1.0"
     inkscape:pageshadow="2"
     inkscape:pageopacity="0.0"
     inkscape:pagecheckerboard="0" /><g
     id="g8"
     inkscape:groupmode="layer"
     inkscape:label="main"
     transform="matrix(1.3333333,0,0,-1.3333333,0,50.156)"><g
       id="g10"
       transform="translate(0.95,1.8)"><g
         id="g12"><g
           id="g14"><g
             id="g16"><path
               d="M -0.85045,0 H 17.85872 M -0.85045,8.50412 H 17.85872 M -0.85045,17.00824 H 17.85872 M -0.85045,25.51237 H 17.85872 M -0.85045,34.0165 H 17.85872 M 0,-1.70079 V 35.7173 M 8.50412,-1.70079 V 35.7173 M 17.00824,-1.70079 V 35.7173"
               style="fill:none;stroke:#808080;stroke-width:0.19925;stroke-linecap:butt;stroke-linejoin:miter;stroke-miterlimit:10;stroke-dasharray:none;stroke-opacity:1"
               id="path18" /></g><path
             d="m 0,25.51237 c 17.00824,0 11.90572,8.50413 16.54996,8.50413"
             style="fill:none;stroke:#000000;stroke-width:0.3985;stroke-linecap:butt;stroke-linejoin:miter;stroke-miterlimit:10;stroke-dasharray:none;stroke-opacity:1"
             id="path20" /><g
             id="g22"
             transform="translate(7.48396,34.0165)"><g
               id="g24"><path
                 d="M -1.19551,1.59401 C -1.09587,0.99626 0,0.09961 0.29886,0 0,-0.09961 -1.09587,-0.99626 -1.19551,-1.59401"
                 style="fill:none;stroke:#000000;stroke-width:0.31879;stroke-linecap:round;stroke-linejoin:round;stroke-miterlimit:10;stroke-dasharray:none;stroke-opacity:1"
                 id="path26" /></g></g><g
             id="g28"
             transform="translate(9.29716,34.0165)"><g
               id="g30"><path
                 d="M -1.19551,1.59401 C -1.09587,0.99626 0,0.09961 0.29886,0 0,-0.09961 -1.09587,-0.99626 -1.19551,-1.59401"
                 style="fill:none;stroke:#000000;stroke-width:0.31879;stroke-linecap:round;stroke-linejoin:round;stroke-miterlimit:10;stroke-dasharray:none;stroke-opacity:1"
                 id="path32" /></g></g><g
             id="g34"
             transform="translate(11.11035,34.0165)"><g
               id="g36"><path
                 d="M -1.19551,1.59401 C -1.09587,0.99626 0,0.09961 0.29886,0 0,-0.09961 -1.09587,-0.99626 -1.19551,-1.59401"
                 style="fill:none;stroke:#000000;stroke-width:0.31879;stroke-linecap:round;stroke-linejoin:round;stroke-miterlimit:10;stroke-dasharray:none;stroke-opacity:1"
                 id="path38" /></g></g><g
             id="g40"
             transform="translate(12.92355,34.0165)"><g
               id="g42"><path
                 d="M -1.19551,1.59401 C -1.09587,0.99626 0,0.09961 0.29886,0 0,-0.09961 -1.09587,-0.99626 -1.19551,-1.59401"
                 style="fill:none;stroke:#000000;stroke-width:0.31879;stroke-linecap:round;stroke-linejoin:round;stroke-miterlimit:10;stroke-dasharray:none;stroke-opacity:1"
                 id="path44" /></g></g><g
             id="g46"
             transform="translate(14.73676,34.0165)"><g
               id="g48"><path
                 d="M -1.19551,1.59401 C -1.09587,0.99626 0,0.09961 0.29886,0 0,-0.09961 -1.09587,-0.99626 -1.19551,-1.59401"
                 style="fill:none;stroke:#000000;stroke-width:0.31879;stroke-linecap:round;stroke-linejoin:round;stroke-miterlimit:10;stroke-dasharray:none;stroke-opacity:1"
                 id="path50" /></g></g><g
             id="g52"
             transform="translate(16.54996,34.0165)"><g
               id="g54"><path
                 d="M -1.19551,1.59401 C -1.09587,0.99626 0,0.09961 0.29886,0 0,-0.09961 -1.09587,-0.99626 -1.19551,-1.59401"
                 style="fill:none;stroke:#000000;stroke-width:0.31879;stroke-linecap:round;stroke-linejoin:round;stroke-miterlimit:10;stroke-dasharray:none;stroke-opacity:1"
                 id="path56" /></g></g><path
             d="m 0,17.00824 c 16.46582,-2e-5 12.20865,7.97035 16.5501,8.4787"
             style="fill:none;stroke:#000000;stroke-width:0.3985;stroke-linecap:butt;stroke-linejoin:miter;stroke-miterlimit:10;stroke-dasharray:none;stroke-opacity:1"
             id="path58" /><g
             id="g60"
             transform="matrix(0.98561,0.16878,-0.16878,0.98561,7.80551,17.95137)"><g
               id="g62"><path
                 d="M -1.19551,1.59401 C -1.09587,0.99626 0,0.09961 0.29886,0 0,-0.09961 -1.09587,-0.99626 -1.19551,-1.59401"
                 style="fill:none;stroke:#000000;stroke-width:0.31879;stroke-linecap:round;stroke-linejoin:round;stroke-miterlimit:10;stroke-dasharray:none;stroke-opacity:1"
                 id="path64" /></g></g><g
             id="g66"
             transform="matrix(0.89056,0.4548,-0.4548,0.89056,11.07146,19.46594)"><g
               id="g68"><path
                 d="M -1.19551,1.59401 C -1.09587,0.99626 0,0.09961 0.29886,0 0,-0.09961 -1.09587,-0.99626 -1.19551,-1.59401"
                 style="fill:none;stroke:#000000;stroke-width:0.31879;stroke-linecap:round;stroke-linejoin:round;stroke-miterlimit:10;stroke-dasharray:none;stroke-opacity:1"
                 id="path70" /></g></g><g
             id="g72"
             transform="matrix(0.6629,0.74863,-0.74863,0.6629,12.9153,21.2957)"><g
               id="g74"><path
                 d="M -1.19551,1.59401 C -1.09587,0.99626 0,0.09961 0.29886,0 0,-0.09961 -1.09587,-0.99626 -1.19551,-1.59401"
                 style="fill:none;stroke:#000000;stroke-width:0.31879;stroke-linecap:round;stroke-linejoin:round;stroke-miterlimit:10;stroke-dasharray:none;stroke-opacity:1"
                 id="path76" /></g></g><g
             id="g78"
             transform="matrix(0.46889,0.88322,-0.88322,0.46889,14.00749,23.12396)"><g
               id="g80"><path
                 d="M -1.19551,1.59401 C -1.09587,0.99626 0,0.09961 0.29886,0 0,-0.09961 -1.09587,-0.99626 -1.19551,-1.59401"
                 style="fill:none;stroke:#000000;stroke-width:0.31879;stroke-linecap:round;stroke-linejoin:round;stroke-miterlimit:10;stroke-dasharray:none;stroke-opacity:1"
                 id="path82" /></g></g><g
             id="g84"
             transform="matrix(0.59047,0.807,-0.807,0.59047,15.03055,24.63313)"><g
               id="g86"><path
                 d="M -1.19551,1.59401 C -1.09587,0.99626 0,0.09961 0.29886,0 0,-0.09961 -1.09587,-0.99626 -1.19551,-1.59401"
                 style="fill:none;stroke:#000000;stroke-width:0.31879;stroke-linecap:round;stroke-linejoin:round;stroke-miterlimit:10;stroke-dasharray:none;stroke-opacity:1"
                 id="path88" /></g></g><g
             id="g90"
             transform="matrix(0.95819,0.2859,-0.2859,0.95819,16.56914,25.38136)"><g
               id="g92"><path
                 d="M -1.19551,1.59401 C -1.09587,0.99626 0,0.09961 0.29886,0 0,-0.09961 -1.09587,-0.99626 -1.19551,-1.59401"
                 style="fill:none;stroke:#000000;stroke-width:0.31879;stroke-linecap:round;stroke-linejoin:round;stroke-miterlimit:10;stroke-dasharray:none;stroke-opacity:1"
                 id="path94" /></g></g><path
             d="m 0,8.50412 c 16.46582,-2e-5 12.20865,7.97034 16.5501,8.47868"
             style="fill:none;stroke:#000000;stroke-width:0.3985;stroke-linecap:butt;stroke-linejoin:miter;stroke-miterlimit:10;stroke-dasharray:none;stroke-opacity:1"
             id="path96" /><g
             id="g98"
             transform="matrix(0.98561,0.16878,-0.16878,0.98561,7.80551,9.44725)"><g
               id="g100"><path
                 d="M -1.19551,1.59401 C -1.09587,0.99626 0,0.09961 0.29886,0 0,-0.09961 -1.09587,-0.99626 -1.19551,-1.59401"
                 style="fill:none;stroke:#000000;stroke-width:0.31879;stroke-linecap:round;stroke-linejoin:round;stroke-miterlimit:10;stroke-dasharray:none;stroke-opacity:1"
                 id="path102" /></g></g><g
             id="g104"
             transform="matrix(0.89056,0.4548,-0.4548,0.89056,11.07146,10.9618)"><g
               id="g106"><path
                 d="M -1.19551,1.59401 C -1.09587,0.99626 0,0.09961 0.29886,0 0,-0.09961 -1.09587,-0.99626 -1.19551,-1.59401"
                 style="fill:none;stroke:#000000;stroke-width:0.31879;stroke-linecap:round;stroke-linejoin:round;stroke-miterlimit:10;stroke-dasharray:none;stroke-opacity:1"
                 id="path108" /></g></g><g
             id="g110"
             transform="matrix(0.6629,0.74863,-0.74863,0.6629,12.9153,12.79158)"><g
               id="g112"><path
                 d="M -1.19551,1.59401 C -1.09587,0.99626 0,0.09961 0.29886,0 0,-0.09961 -1.09587,-0.99626 -1.19551,-1.59401"
                 style="fill:none;stroke:#000000;stroke-width:0.31879;stroke-linecap:round;stroke-linejoin:round;stroke-miterlimit:10;stroke-dasharray:none;stroke-opacity:1"
                 id="path114" /></g></g><g
             id="g116"
             transform="matrix(0.46889,0.88322,-0.88322,0.46889,14.00749,14.61983)"><g
               id="g118"><path
                 d="M -1.19551,1.59401 C -1.09587,0.99626 0,0.09961 0.29886,0 0,-0.09961 -1.09587,-0.99626 -1.19551,-1.59401"
                 style="fill:none;stroke:#000000;stroke-width:0.31879;stroke-linecap:round;stroke-linejoin:round;stroke-miterlimit:10;stroke-dasharray:none;stroke-opacity:1"
                 id="path120" /></g></g><g
             id="g122"
             transform="matrix(0.59047,0.807,-0.807,0.59047,15.03055,16.129)"><g
               id="g124"><path
                 d="M -1.19551,1.59401 C -1.09587,0.99626 0,0.09961 0.29886,0 0,-0.09961 -1.09587,-0.99626 -1.19551,-1.59401"
                 style="fill:none;stroke:#000000;stroke-width:0.31879;stroke-linecap:round;stroke-linejoin:round;stroke-miterlimit:10;stroke-dasharray:none;stroke-opacity:1"
                 id="path126" /></g></g><g
             id="g128"
             transform="matrix(0.95819,0.2859,-0.2859,0.95819,16.56914,16.87723)"><g
               id="g130"><path
                 d="M -1.19551,1.59401 C -1.09587,0.99626 0,0.09961 0.29886,0 0,-0.09961 -1.09587,-0.99626 -1.19551,-1.59401"
                 style="fill:none;stroke:#000000;stroke-width:0.31879;stroke-linecap:round;stroke-linejoin:round;stroke-miterlimit:10;stroke-dasharray:none;stroke-opacity:1"
                 id="path132" /></g></g><path
             d="M 0,0 C 16.46582,0 12.20865,7.97032 16.5501,8.47868"
             style="fill:none;stroke:#000000;stroke-width:0.3985;stroke-linecap:butt;stroke-linejoin:miter;stroke-miterlimit:10;stroke-dasharray:none;stroke-opacity:1"
             id="path134" /><g
             id="g136"><path
               d="M 3.26067,1.71848 C 3.65524,1.15329 7.09547,0.79846 7.87775,0.904 7.14235,0.60484 3.84145,-0.8304 3.52345,-1.45848"
               style="fill:none;stroke:#000000;stroke-width:0.31879;stroke-linecap:round;stroke-linejoin:round;stroke-miterlimit:10;stroke-dasharray:none;stroke-opacity:1"
               id="path138" /></g><g
             id="g140"><path
               d="M 8.08923,2.64566 C 8.4888,2.15468 10.78073,2.28838 11.26662,2.50296 10.88873,2.12097 9.18399,0.2875 9.14867,-0.36104"
               style="fill:none;stroke:#000000;stroke-width:0.31879;stroke-linecap:round;stroke-linejoin:round;stroke-miterlimit:10;stroke-dasharray:none;stroke-opacity:1"
               id="path142" /></g><g
             id="g144"><path
               d="M 10.6482,4.0457 C 11.13986,3.6812 12.798,4.18439 13.10658,4.45515 12.959,4.06705 12.46317,2.19174 12.71436,1.61809"
               style="fill:none;stroke:#000000;stroke-width:0.31879;stroke-linecap:round;stroke-linejoin:round;stroke-miterlimit:10;stroke-dasharray:none;stroke-opacity:1"
               id="path146" /></g><g
             id="g148"><path
               d="m 11.95737,5.62251 c 0.57132,-0.20771 1.95057,0.49311 2.18723,0.74488 -0.05814,-0.3402 0.10686,-1.95356 0.54986,-2.3792"
               style="fill:none;stroke:#000000;stroke-width:0.31879;stroke-linecap:round;stroke-linejoin:round;stroke-miterlimit:10;stroke-dasharray:none;stroke-opacity:1"
               id="path150" /></g><g
             id="g152"><path
               d="m 12.89116,7.4151 c 0.58189,-0.17947 2.00459,0.33636 2.28868,0.47887 -0.13608,-0.27582 0.04549,-1.6066 0.5294,-1.96921"
               style="fill:none;stroke:#000000;stroke-width:0.31879;stroke-linecap:round;stroke-linejoin:round;stroke-miterlimit:10;stroke-dasharray:none;stroke-opacity:1"
               id="path154" /></g><g
             id="g156"><path
               d="M 14.5435,9.41226 C 14.99767,8.99307 16.53851,8.57762 16.84277,8.50099 16.56168,8.37975 16.03014,7.28902 16.316,6.76259"
               style="fill:none;stroke:#000000;stroke-width:0.31879;stroke-linecap:round;stroke-linejoin:round;stroke-miterlimit:10;stroke-dasharray:none;stroke-opacity:1"
               id="path158" /></g></g></g></g></g></svg>
