<?xml version="1.0" encoding="UTF-8" standalone="no"?>
<!-- Created with Inkscape (http://www.inkscape.org/) -->

<svg
   version="1.1"
   id="svg2"
   xml:space="preserve"
   width="25.587999"
   height="37.136002"
   viewBox="0 0 25.587999 37.136002"
   sodipodi:docname="main.pdf"
   xmlns:inkscape="http://www.inkscape.org/namespaces/inkscape"
   xmlns:sodipodi="http://sodipodi.sourceforge.net/DTD/sodipodi-0.dtd"
   xmlns="http://www.w3.org/2000/svg"
   xmlns:svg="http://www.w3.org/2000/svg"><defs
     id="defs6" /><sodipodi:namedview
     id="namedview4"
     pagecolor="#ffffff"
     bordercolor="#666666"
     borderopacity="1.0"
     inkscape:pageshadow="2"
     inkscape:pageopacity="0.0"
     inkscape:pagecheckerboard="0" /><g
     id="g8"
     inkscape:groupmode="layer"
     inkscape:label="main"
     transform="matrix(1.3333333,0,0,-1.3333333,0,37.136)"><g
       id="g10"
       transform="translate(1.158,0.95)"><g
         id="g12"><g
           id="g14"><g
             id="g16"><path
               d="M -0.85045,0 H 17.85872 M -0.85045,8.50412 H 17.85872 M -0.85045,17.00824 H 17.85872 M -0.85045,25.51237 H 17.85872 M 0,-0.85045 V 26.36284 M 8.50412,-0.85045 v 27.21329 m 8.50412,-27.21329 v 27.21329"
               style="fill:none;stroke:#808080;stroke-width:0.19925;stroke-linecap:butt;stroke-linejoin:miter;stroke-miterlimit:10;stroke-dasharray:none;stroke-opacity:1"
               id="path18" /></g><path
             d="m 4.06306,19.03973 8.16929,4.08475"
             style="fill:none;stroke:#000000;stroke-width:0.3985;stroke-linecap:butt;stroke-linejoin:miter;stroke-miterlimit:10;stroke-dasharray:none;stroke-opacity:1"
             id="path20" /><g
             id="g22"
             transform="matrix(-0.89436,-0.44717,0.44717,-0.89436,4.24129,19.12885)"><g
               id="g24"><path
                 d="M 2.07224,2.39104 C 1.69365,0.95639 0.84999,0.27895 0,0 0.84999,-0.27895 1.69365,-0.95639 2.07224,-2.39104"
                 style="fill:none;stroke:#000000;stroke-width:0.3985;stroke-linecap:round;stroke-linejoin:round;stroke-miterlimit:10;stroke-dasharray:none;stroke-opacity:1"
                 id="path26" /></g></g><g
             id="g28"
             transform="matrix(-0.89436,-0.44717,0.44717,-0.89436,2.03154,18.02399)"><g
               id="g30"><path
                 d="M 2.07224,2.39104 C 1.69365,0.95639 0.84999,0.27895 0,0 0.84999,-0.27895 1.69365,-0.95639 2.07224,-2.39104"
                 style="fill:none;stroke:#000000;stroke-width:0.3985;stroke-linecap:round;stroke-linejoin:round;stroke-miterlimit:10;stroke-dasharray:none;stroke-opacity:1"
                 id="path32" /></g></g><g
             id="g34"
             transform="matrix(0.89436,0.44717,-0.44717,0.89436,12.41054,23.21358)"><g
               id="g36"><path
                 d="M -2.07224,2.39104 C -1.69365,0.95639 -0.84999,0.27895 0,0 -0.84999,-0.27895 -1.69365,-0.95639 -2.07224,-2.39104"
                 style="fill:none;stroke:#000000;stroke-width:0.3985;stroke-linecap:round;stroke-linejoin:round;stroke-miterlimit:10;stroke-dasharray:none;stroke-opacity:1"
                 id="path38" /></g></g><g
             id="g40"
             transform="matrix(0.89436,0.44717,-0.44717,0.89436,14.62029,24.31844)"><g
               id="g42"><path
                 d="M -2.07224,2.39104 C -1.69365,0.95639 -0.84999,0.27895 0,0 -0.84999,-0.27895 -1.69365,-0.95639 -2.07224,-2.39104"
                 style="fill:none;stroke:#000000;stroke-width:0.3985;stroke-linecap:round;stroke-linejoin:round;stroke-miterlimit:10;stroke-dasharray:none;stroke-opacity:1"
                 id="path44" /></g></g><g
             id="g46"
             transform="matrix(0.89436,0.44717,-0.44717,0.89436,16.83003,25.42328)"><g
               id="g48"><path
                 d="M -2.07224,2.39104 C -1.69365,0.95639 -0.84999,0.27895 0,0 -0.84999,-0.27895 -1.69365,-0.95639 -2.07224,-2.39104"
                 style="fill:none;stroke:#000000;stroke-width:0.3985;stroke-linecap:round;stroke-linejoin:round;stroke-miterlimit:10;stroke-dasharray:none;stroke-opacity:1"
                 id="path50" /></g></g><path
             d="M 2.94812,9.97816 14.0601,15.5342"
             style="fill:none;stroke:#000000;stroke-width:0.3985;stroke-linecap:butt;stroke-linejoin:miter;stroke-miterlimit:10;stroke-dasharray:none;stroke-opacity:1"
             id="path52" /><g
             id="g54"
             transform="matrix(-0.89436,-0.44717,-0.44717,0.89436,4.75212,10.88014)"><g
               id="g56"><path
                 d="M 4.21463,0 0.64343,1.34572 1.8178,0 Z"
                 style="fill:#000000;fill-opacity:1;fill-rule:nonzero;stroke:#000000;stroke-width:0.3985;stroke-linecap:butt;stroke-linejoin:miter;stroke-miterlimit:10;stroke-dasharray:none;stroke-opacity:1"
                 id="path58" /></g></g><g
             id="g60"
             transform="matrix(0.89436,0.44717,-0.44717,0.89436,12.25612,14.63222)"><g
               id="g62"><path
                 d="M 4.21463,0 0.64343,1.34572 1.8178,0 Z"
                 style="fill:#000000;fill-opacity:1;fill-rule:nonzero;stroke:#000000;stroke-width:0.3985;stroke-linecap:butt;stroke-linejoin:miter;stroke-miterlimit:10;stroke-dasharray:none;stroke-opacity:1"
                 id="path64" /></g></g><path
             d="M 0,0 15.89447,7.94724"
             style="fill:none;stroke:#000000;stroke-width:0.3985;stroke-linecap:butt;stroke-linejoin:miter;stroke-miterlimit:10;stroke-dasharray:none;stroke-opacity:1"
             id="path66" /><g
             id="g68"
             transform="matrix(0.89436,0.44717,-0.44717,0.89436,15.98355,7.99179)"><g
               id="g70"><path
                 d="M 1.1457,2.09216 H 0 v -4.18432 h 1.1457"
                 style="fill:none;stroke:#000000;stroke-width:0.3985;stroke-linecap:butt;stroke-linejoin:miter;stroke-miterlimit:10;stroke-dasharray:none;stroke-opacity:1"
                 id="path72" /></g></g></g></g></g></g></svg>
