<?xml version="1.0" encoding="UTF-8" standalone="no"?>
<!-- Created with Inkscape (http://www.inkscape.org/) -->

<svg
   xmlns:dc="http://purl.org/dc/elements/1.1/"
   xmlns:cc="http://creativecommons.org/ns#"
   xmlns:rdf="http://www.w3.org/1999/02/22-rdf-syntax-ns#"
   xmlns:svg="http://www.w3.org/2000/svg"
   xmlns="http://www.w3.org/2000/svg"
   xmlns:sodipodi="http://sodipodi.sourceforge.net/DTD/sodipodi-0.dtd"
   xmlns:inkscape="http://www.inkscape.org/namespaces/inkscape"
   version="1.1"
   id="svg2"
   xml:space="preserve"
   width="152.75067"
   height="155.05067"
   viewBox="0 0 152.75067 155.05067"
   sodipodi:docname="lower.svg"
   inkscape:version="0.92.3 (2405546, 2018-03-11)"><metadata
     id="metadata8"><rdf:RDF><cc:Work
         rdf:about=""><dc:format>image/svg+xml</dc:format><dc:type
           rdf:resource="http://purl.org/dc/dcmitype/StillImage" /><dc:title></dc:title></cc:Work></rdf:RDF></metadata><defs
     id="defs6"><clipPath
       clipPathUnits="userSpaceOnUse"
       id="clipPath270"><path
         d="M -1,-1 H 13.703 V 8.97 H -1 Z"
         id="path268"
         inkscape:connector-curvature="0" /></clipPath><clipPath
       clipPathUnits="userSpaceOnUse"
       id="clipPath294"><path
         d="M -1,-1 H 5.234 V 6.136 H -1 Z"
         id="path292"
         inkscape:connector-curvature="0" /></clipPath><clipPath
       clipPathUnits="userSpaceOnUse"
       id="clipPath310"><path
         d="M -1,-1 H 5.234 V 6.136 H -1 Z"
         id="path308"
         inkscape:connector-curvature="0" /></clipPath><clipPath
       clipPathUnits="userSpaceOnUse"
       id="clipPath326"><path
         d="M -1,-1 H 5.234 V 6.136 H -1 Z"
         id="path324"
         inkscape:connector-curvature="0" /></clipPath><clipPath
       clipPathUnits="userSpaceOnUse"
       id="clipPath342"><path
         d="M -1,-1 H 5.234 V 6.136 H -1 Z"
         id="path340"
         inkscape:connector-curvature="0" /></clipPath><clipPath
       clipPathUnits="userSpaceOnUse"
       id="clipPath358"><path
         d="M -1,-1 H 5.234 V 6.136 H -1 Z"
         id="path356"
         inkscape:connector-curvature="0" /></clipPath><clipPath
       clipPathUnits="userSpaceOnUse"
       id="clipPath374"><path
         d="M -1,-1 H 5.234 V 6.136 H -1 Z"
         id="path372"
         inkscape:connector-curvature="0" /></clipPath><clipPath
       clipPathUnits="userSpaceOnUse"
       id="clipPath390"><path
         d="M -1,-1 H 5.234 V 6.136 H -1 Z"
         id="path388"
         inkscape:connector-curvature="0" /></clipPath><clipPath
       clipPathUnits="userSpaceOnUse"
       id="clipPath406"><path
         d="M -1,-1 H 5.234 V 6.136 H -1 Z"
         id="path404"
         inkscape:connector-curvature="0" /></clipPath><clipPath
       clipPathUnits="userSpaceOnUse"
       id="clipPath422"><path
         d="M -1,-1 H 5.234 V 6.136 H -1 Z"
         id="path420"
         inkscape:connector-curvature="0" /></clipPath><clipPath
       clipPathUnits="userSpaceOnUse"
       id="clipPath438"><path
         d="M -1,-1 H 5.234 V 6.136 H -1 Z"
         id="path436"
         inkscape:connector-curvature="0" /></clipPath><clipPath
       clipPathUnits="userSpaceOnUse"
       id="clipPath454"><path
         d="M -1,-1 H 5.234 V 6.136 H -1 Z"
         id="path452"
         inkscape:connector-curvature="0" /></clipPath><clipPath
       clipPathUnits="userSpaceOnUse"
       id="clipPath470"><path
         d="M -1,-1 H 5.234 V 6.136 H -1 Z"
         id="path468"
         inkscape:connector-curvature="0" /></clipPath><clipPath
       clipPathUnits="userSpaceOnUse"
       id="clipPath486"><path
         d="M -1,-1 H 5.234 V 6.136 H -1 Z"
         id="path484"
         inkscape:connector-curvature="0" /></clipPath><clipPath
       clipPathUnits="userSpaceOnUse"
       id="clipPath502"><path
         d="M -1,-1 H 5.234 V 6.136 H -1 Z"
         id="path500"
         inkscape:connector-curvature="0" /></clipPath><clipPath
       clipPathUnits="userSpaceOnUse"
       id="clipPath518"><path
         d="M -1,-1 H 5.234 V 6.136 H -1 Z"
         id="path516"
         inkscape:connector-curvature="0" /></clipPath><clipPath
       clipPathUnits="userSpaceOnUse"
       id="clipPath534"><path
         d="M -1,-1 H 5.234 V 6.136 H -1 Z"
         id="path532"
         inkscape:connector-curvature="0" /></clipPath><clipPath
       clipPathUnits="userSpaceOnUse"
       id="clipPath550"><path
         d="M -1,-1 H 5.234 V 6.136 H -1 Z"
         id="path548"
         inkscape:connector-curvature="0" /></clipPath><clipPath
       clipPathUnits="userSpaceOnUse"
       id="clipPath566"><path
         d="M -1,-1 H 5.234 V 6.136 H -1 Z"
         id="path564"
         inkscape:connector-curvature="0" /></clipPath></defs><sodipodi:namedview
     pagecolor="#ffffff"
     bordercolor="#666666"
     borderopacity="1"
     objecttolerance="10"
     gridtolerance="10"
     guidetolerance="10"
     inkscape:pageopacity="0"
     inkscape:pageshadow="2"
     inkscape:window-width="958"
     inkscape:window-height="1182"
     id="namedview4"
     showgrid="false"
     inkscape:zoom="1.522083"
     inkscape:cx="-38.598681"
     inkscape:cy="77.525337"
     inkscape:window-x="1920"
     inkscape:window-y="16"
     inkscape:window-maximized="0"
     inkscape:current-layer="g10" /><g
     id="g10"
     inkscape:groupmode="layer"
     inkscape:label="lower"
     transform="matrix(1.3333333,0,0,-1.3333333,-165.364,1035.504)"><g
       id="g12"><g
         id="g14"><path
           d="m 137.782,734.861 c 0,0.995 -0.806,1.8 -1.8,1.8 -0.994,0 -1.8,-0.805 -1.8,-1.8 0,-0.994 0.806,-1.8 1.8,-1.8 0.994,0 1.8,0.806 1.8,1.8"
           style="fill:#000000;fill-opacity:1;fill-rule:evenodd;stroke:none"
           id="path16"
           inkscape:connector-curvature="0" /></g></g><g
       id="g18"><g
         id="g20"><path
           d="m 153.773,753.513 c 0,0.994 -0.806,1.8 -1.8,1.8 -0.994,0 -1.8,-0.806 -1.8,-1.8 0,-0.994 0.806,-1.8 1.8,-1.8 0.994,0 1.8,0.806 1.8,1.8"
           style="fill:#000000;fill-opacity:1;fill-rule:evenodd;stroke:none"
           id="path22"
           inkscape:connector-curvature="0" /></g></g><g
       id="g24"><g
         id="g26"><path
           d="m 180.718,761.337 c 0,0.995 -0.806,1.8 -1.8,1.8 -0.994,0 -1.8,-0.805 -1.8,-1.8 0,-0.994 0.806,-1.8 1.8,-1.8 0.994,0 1.8,0.806 1.8,1.8"
           style="fill:#000000;fill-opacity:1;fill-rule:evenodd;stroke:none"
           id="path28"
           inkscape:connector-curvature="0" /></g></g><g
       id="g30"><g
         id="g32"><path
           d="m 208.336,751.195 c 0,0.994 -0.806,1.8 -1.8,1.8 -0.994,0 -1.8,-0.806 -1.8,-1.8 0,-0.994 0.806,-1.8 1.8,-1.8 0.994,0 1.8,0.806 1.8,1.8"
           style="fill:#000000;fill-opacity:1;fill-rule:evenodd;stroke:none"
           id="path34"
           inkscape:connector-curvature="0" /></g></g><g
       id="g36"><g
         id="g38"><path
           d="m 224.741,723.838 c 0,0.994 -0.805,1.8 -1.8,1.8 -0.994,0 -1.8,-0.806 -1.8,-1.8 0,-0.995 0.806,-1.8 1.8,-1.8 0.995,0 1.8,0.805 1.8,1.8"
           style="fill:#000000;fill-opacity:1;fill-rule:evenodd;stroke:none"
           id="path40"
           inkscape:connector-curvature="0" /></g></g><g
       id="g42"><g
         id="g44"><path
           d="m 220.009,693.407 c 0,0.994 -0.805,1.8 -1.8,1.8 -0.994,0 -1.8,-0.806 -1.8,-1.8 0,-0.994 0.806,-1.8 1.8,-1.8 0.995,0 1.8,0.806 1.8,1.8"
           style="fill:#000000;fill-opacity:1;fill-rule:evenodd;stroke:none"
           id="path46"
           inkscape:connector-curvature="0" /></g></g><g
       id="g48"><g
         id="g50"><path
           d="m 202.89,675.624 c 0,0.994 -0.806,1.8 -1.8,1.8 -0.994,0 -1.8,-0.806 -1.8,-1.8 0,-0.994 0.806,-1.8 1.8,-1.8 0.994,0 1.8,0.806 1.8,1.8"
           style="fill:#000000;fill-opacity:1;fill-rule:evenodd;stroke:none"
           id="path52"
           inkscape:connector-curvature="0" /></g></g><g
       id="g54"><g
         id="g56"><path
           d="m 168.159,670.645 c 0,0.994 -0.806,1.8 -1.8,1.8 -0.994,0 -1.8,-0.806 -1.8,-1.8 0,-0.995 0.806,-1.8 1.8,-1.8 0.994,0 1.8,0.805 1.8,1.8"
           style="fill:#000000;fill-opacity:1;fill-rule:evenodd;stroke:none"
           id="path58"
           inkscape:connector-curvature="0" /></g></g><g
       id="g60"><g
         id="g62"><path
           d="m 145.665,684.017 c 0,0.994 -0.806,1.8 -1.8,1.8 -0.994,0 -1.8,-0.806 -1.8,-1.8 0,-0.994 0.806,-1.8 1.8,-1.8 0.994,0 1.8,0.806 1.8,1.8"
           style="fill:#000000;fill-opacity:1;fill-rule:evenodd;stroke:none"
           id="path64"
           inkscape:connector-curvature="0" /></g></g><g
       id="g66"><g
         id="g68"><path
           d="m 134.133,707.211 c 0,0.994 -0.806,1.8 -1.8,1.8 -0.994,0 -1.8,-0.806 -1.8,-1.8 0,-0.994 0.806,-1.8 1.8,-1.8 0.994,0 1.8,0.806 1.8,1.8"
           style="fill:#000000;fill-opacity:1;fill-rule:evenodd;stroke:none"
           id="path70"
           inkscape:connector-curvature="0" /></g></g><g
       id="g72"><path
         d="m 151.973,753.513 26.945,7.824"
         style="fill:none;stroke:#000000;stroke-width:0.40000001;stroke-linecap:butt;stroke-linejoin:round;stroke-miterlimit:10;stroke-dasharray:none;stroke-opacity:1"
         id="path74"
         inkscape:connector-curvature="0" /><g
         id="g76"><g
           id="g78"><path
             d="m 178.918,761.337 -5.266,0.205 0.929,-3.198 z"
             style="fill:#000000;fill-opacity:1;fill-rule:evenodd;stroke:#000000;stroke-width:0.40000001;stroke-linecap:butt;stroke-linejoin:round;stroke-miterlimit:10;stroke-dasharray:none;stroke-opacity:1"
             id="path80"
             inkscape:connector-curvature="0" /></g></g></g><g
       id="g82"><path
         d="m 178.918,761.337 27.618,-10.142"
         style="fill:none;stroke:#000000;stroke-width:0.40000001;stroke-linecap:butt;stroke-linejoin:round;stroke-miterlimit:10;stroke-dasharray:none;stroke-opacity:1"
         id="path84"
         inkscape:connector-curvature="0" /><g
         id="g86"><g
           id="g88"><path
             d="m 206.536,751.195 -4.12,3.287 -1.148,-3.126 z"
             style="fill:#000000;fill-opacity:1;fill-rule:evenodd;stroke:#000000;stroke-width:0.40000001;stroke-linecap:butt;stroke-linejoin:round;stroke-miterlimit:10;stroke-dasharray:none;stroke-opacity:1"
             id="path90"
             inkscape:connector-curvature="0" /></g></g></g><g
       id="g92"><path
         d="m 206.536,751.195 16.405,-27.357"
         style="fill:none;stroke:#000000;stroke-width:0.40000001;stroke-linecap:butt;stroke-linejoin:round;stroke-miterlimit:10;stroke-dasharray:none;stroke-opacity:1"
         id="path94"
         inkscape:connector-curvature="0" /><g
         id="g96"><g
           id="g98"><path
             d="m 222.941,723.838 -1.143,5.144 -2.856,-1.713 z"
             style="fill:#000000;fill-opacity:1;fill-rule:evenodd;stroke:#000000;stroke-width:0.40000001;stroke-linecap:butt;stroke-linejoin:round;stroke-miterlimit:10;stroke-dasharray:none;stroke-opacity:1"
             id="path100"
             inkscape:connector-curvature="0" /></g></g></g><g
       id="g102"><path
         d="m 222.941,723.838 -4.732,-30.431"
         style="fill:none;stroke:#000000;stroke-width:0.40000001;stroke-linecap:butt;stroke-linejoin:round;stroke-miterlimit:10;stroke-dasharray:none;stroke-opacity:1"
         id="path104"
         inkscape:connector-curvature="0" /><g
         id="g106"><g
           id="g108"><path
             d="m 218.209,693.407 2.414,4.685 -3.291,0.512 z"
             style="fill:#000000;fill-opacity:1;fill-rule:evenodd;stroke:#000000;stroke-width:0.40000001;stroke-linecap:butt;stroke-linejoin:round;stroke-miterlimit:10;stroke-dasharray:none;stroke-opacity:1"
             id="path110"
             inkscape:connector-curvature="0" /></g></g></g><g
       id="g112"><path
         d="M 218.209,693.407 201.09,675.624"
         style="fill:none;stroke:#000000;stroke-width:0.40000001;stroke-linecap:butt;stroke-linejoin:round;stroke-miterlimit:10;stroke-dasharray:none;stroke-opacity:1"
         id="path114"
         inkscape:connector-curvature="0" /><g
         id="g116"><g
           id="g118"><path
             d="m 201.09,675.624 4.667,2.447 -2.399,2.31 z"
             style="fill:#000000;fill-opacity:1;fill-rule:evenodd;stroke:#000000;stroke-width:0.40000001;stroke-linecap:butt;stroke-linejoin:round;stroke-miterlimit:10;stroke-dasharray:none;stroke-opacity:1"
             id="path120"
             inkscape:connector-curvature="0" /></g></g></g><g
       id="g122"><path
         d="m 201.09,675.624 -34.731,-4.979"
         style="fill:none;stroke:#000000;stroke-width:0.40000001;stroke-linecap:butt;stroke-linejoin:round;stroke-miterlimit:10;stroke-dasharray:none;stroke-opacity:1"
         id="path124"
         inkscape:connector-curvature="0" /><g
         id="g126"><g
           id="g128"><path
             d="m 166.359,670.645 5.185,-0.939 -0.472,3.296 z"
             style="fill:#000000;fill-opacity:1;fill-rule:evenodd;stroke:#000000;stroke-width:0.40000001;stroke-linecap:butt;stroke-linejoin:round;stroke-miterlimit:10;stroke-dasharray:none;stroke-opacity:1"
             id="path130"
             inkscape:connector-curvature="0" /></g></g></g><g
       id="g132"><path
         d="m 166.359,670.645 -22.494,13.372"
         style="fill:none;stroke:#000000;stroke-width:0.40000001;stroke-linecap:butt;stroke-linejoin:round;stroke-miterlimit:10;stroke-dasharray:none;stroke-opacity:1"
         id="path134"
         inkscape:connector-curvature="0" /><g
         id="g136"><g
           id="g138"><path
             d="m 143.865,684.017 3.447,-3.986 1.702,2.862 z"
             style="fill:#000000;fill-opacity:1;fill-rule:evenodd;stroke:#000000;stroke-width:0.40000001;stroke-linecap:butt;stroke-linejoin:round;stroke-miterlimit:10;stroke-dasharray:none;stroke-opacity:1"
             id="path140"
             inkscape:connector-curvature="0" /></g></g></g><g
       id="g142"><path
         d="m 143.865,684.017 -11.532,23.194"
         style="fill:none;stroke:#000000;stroke-width:0.40000001;stroke-linecap:butt;stroke-linejoin:round;stroke-miterlimit:10;stroke-dasharray:none;stroke-opacity:1"
         id="path144"
         inkscape:connector-curvature="0" /><g
         id="g146"><g
           id="g148"><path
             d="m 132.333,707.211 0.735,-5.218 2.982,1.482 z"
             style="fill:#000000;fill-opacity:1;fill-rule:evenodd;stroke:#000000;stroke-width:0.40000001;stroke-linecap:butt;stroke-linejoin:round;stroke-miterlimit:10;stroke-dasharray:none;stroke-opacity:1"
             id="path150"
             inkscape:connector-curvature="0" /></g></g></g><g
       id="g152"><path
         d="m 132.333,707.211 3.649,27.65"
         style="fill:none;stroke:#000000;stroke-width:0.40000001;stroke-linecap:butt;stroke-linejoin:round;stroke-miterlimit:10;stroke-dasharray:none;stroke-opacity:1"
         id="path154"
         inkscape:connector-curvature="0" /><g
         id="g156"><g
           id="g158"><path
             d="m 135.982,734.861 -2.305,-4.739 3.301,-0.435 z"
             style="fill:#000000;fill-opacity:1;fill-rule:evenodd;stroke:#000000;stroke-width:0.40000001;stroke-linecap:butt;stroke-linejoin:round;stroke-miterlimit:10;stroke-dasharray:none;stroke-opacity:1"
             id="path160"
             inkscape:connector-curvature="0" /></g></g></g><g
       id="g162"><path
         d="m 135.982,734.861 15.991,18.652"
         style="fill:none;stroke:#000000;stroke-width:0.40000001;stroke-linecap:butt;stroke-linejoin:round;stroke-miterlimit:10;stroke-dasharray:none;stroke-opacity:1"
         id="path164"
         inkscape:connector-curvature="0" /><g
         id="g166"><g
           id="g168"><path
             d="m 151.973,753.513 -4.518,-2.712 2.528,-2.167 z"
             style="fill:#000000;fill-opacity:1;fill-rule:evenodd;stroke:#000000;stroke-width:0.40000001;stroke-linecap:butt;stroke-linejoin:round;stroke-miterlimit:10;stroke-dasharray:none;stroke-opacity:1"
             id="path170"
             inkscape:connector-curvature="0" /></g></g></g><g
       id="g172"><path
         d="m 206.536,751.195 c -1.948,2.163 -1.774,5.496 0.389,7.444 2.163,1.948 5.496,1.774 7.444,-0.389 1.948,-2.163 1.774,-5.496 -0.389,-7.444 -1.295,-1.167 -3.083,-1.617 -4.776,-1.204"
         style="fill:none;stroke:#000000;stroke-width:0.40000001;stroke-linecap:butt;stroke-linejoin:round;stroke-miterlimit:10;stroke-dasharray:none;stroke-opacity:1"
         id="path174"
         inkscape:connector-curvature="0" /><g
         id="g176"><g
           id="g178"><path
             d="m 209.204,749.602 2.677,-1.682 0.474,1.941 z"
             style="fill:#000000;fill-opacity:1;fill-rule:evenodd;stroke:#000000;stroke-width:0.40000001;stroke-linecap:butt;stroke-linejoin:round;stroke-miterlimit:10;stroke-dasharray:none;stroke-opacity:1"
             id="path180"
             inkscape:connector-curvature="0" /></g></g></g><g
       id="g182"><path
         d="m 222.941,723.838 c -1.948,2.163 -1.773,5.496 0.39,7.444 2.164,1.948 5.497,1.773 7.445,-0.39 1.947,-2.164 1.773,-5.497 -0.391,-7.444 -1.295,-1.167 -3.083,-1.617 -4.776,-1.204"
         style="fill:none;stroke:#000000;stroke-width:0.40000001;stroke-linecap:butt;stroke-linejoin:round;stroke-miterlimit:10;stroke-dasharray:none;stroke-opacity:1"
         id="path184"
         inkscape:connector-curvature="0" /><g
         id="g186"><g
           id="g188"><path
             d="m 225.609,722.245 2.678,-1.682 0.474,1.941 z"
             style="fill:#000000;fill-opacity:1;fill-rule:evenodd;stroke:#000000;stroke-width:0.40000001;stroke-linecap:butt;stroke-linejoin:round;stroke-miterlimit:10;stroke-dasharray:none;stroke-opacity:1"
             id="path190"
             inkscape:connector-curvature="0" /></g></g></g><g
       id="g192"><path
         d="m 218.209,693.407 c -1.948,2.163 -1.773,5.496 0.39,7.444 2.164,1.948 5.497,1.774 7.444,-0.39 1.948,-2.163 1.774,-5.496 -0.39,-7.444 -1.295,-1.166 -3.083,-1.617 -4.776,-1.204"
         style="fill:none;stroke:#000000;stroke-width:0.40000001;stroke-linecap:butt;stroke-linejoin:round;stroke-miterlimit:10;stroke-dasharray:none;stroke-opacity:1"
         id="path194"
         inkscape:connector-curvature="0" /><g
         id="g196"><g
           id="g198"><path
             d="m 220.877,691.814 2.678,-1.681 0.474,1.941 z"
             style="fill:#000000;fill-opacity:1;fill-rule:evenodd;stroke:#000000;stroke-width:0.40000001;stroke-linecap:butt;stroke-linejoin:round;stroke-miterlimit:10;stroke-dasharray:none;stroke-opacity:1"
             id="path200"
             inkscape:connector-curvature="0" /></g></g></g><g
       id="g202"><path
         d="m 201.09,675.624 c -1.948,2.163 -1.774,5.496 0.39,7.444 2.163,1.948 5.496,1.773 7.444,-0.39 1.948,-2.163 1.773,-5.496 -0.39,-7.444 -1.295,-1.166 -3.083,-1.617 -4.777,-1.204"
         style="fill:none;stroke:#000000;stroke-width:0.40000001;stroke-linecap:butt;stroke-linejoin:round;stroke-miterlimit:10;stroke-dasharray:none;stroke-opacity:1"
         id="path204"
         inkscape:connector-curvature="0" /><g
         id="g206"><g
           id="g208"><path
             d="m 203.758,674.031 2.677,-1.681 0.474,1.941 z"
             style="fill:#000000;fill-opacity:1;fill-rule:evenodd;stroke:#000000;stroke-width:0.40000001;stroke-linecap:butt;stroke-linejoin:round;stroke-miterlimit:10;stroke-dasharray:none;stroke-opacity:1"
             id="path210"
             inkscape:connector-curvature="0" /></g></g></g><g
       id="g212"><path
         d="m 166.359,670.645 c -1.948,2.163 -1.774,5.496 0.39,7.444 2.163,1.948 5.496,1.773 7.444,-0.39 1.948,-2.164 1.773,-5.497 -0.39,-7.445 -1.295,-1.166 -3.083,-1.616 -4.776,-1.203"
         style="fill:none;stroke:#000000;stroke-width:0.40000001;stroke-linecap:butt;stroke-linejoin:round;stroke-miterlimit:10;stroke-dasharray:none;stroke-opacity:1"
         id="path214"
         inkscape:connector-curvature="0" /><g
         id="g216"><g
           id="g218"><path
             d="m 169.027,669.052 2.677,-1.682 0.474,1.941 z"
             style="fill:#000000;fill-opacity:1;fill-rule:evenodd;stroke:#000000;stroke-width:0.40000001;stroke-linecap:butt;stroke-linejoin:round;stroke-miterlimit:10;stroke-dasharray:none;stroke-opacity:1"
             id="path220"
             inkscape:connector-curvature="0" /></g></g></g><g
       id="g222"><path
         d="m 143.865,684.017 c -1.948,2.163 -1.774,5.496 0.39,7.444 2.163,1.948 5.496,1.773 7.444,-0.39 1.948,-2.164 1.773,-5.496 -0.39,-7.444 -1.295,-1.166 -3.083,-1.617 -4.776,-1.204"
         style="fill:none;stroke:#000000;stroke-width:0.40000001;stroke-linecap:butt;stroke-linejoin:round;stroke-miterlimit:10;stroke-dasharray:none;stroke-opacity:1"
         id="path224"
         inkscape:connector-curvature="0" /><g
         id="g226"><g
           id="g228"><path
             d="m 146.533,682.424 2.678,-1.682 0.473,1.941 z"
             style="fill:#000000;fill-opacity:1;fill-rule:evenodd;stroke:#000000;stroke-width:0.40000001;stroke-linecap:butt;stroke-linejoin:round;stroke-miterlimit:10;stroke-dasharray:none;stroke-opacity:1"
             id="path230"
             inkscape:connector-curvature="0" /></g></g></g><g
       id="g232"><path
         d="m 132.333,707.211 c -1.948,2.163 -1.773,5.496 0.39,7.444 2.163,1.948 5.496,1.774 7.444,-0.39 1.948,-2.163 1.773,-5.496 -0.39,-7.444 -1.295,-1.166 -3.083,-1.617 -4.776,-1.204"
         style="fill:none;stroke:#000000;stroke-width:0.40000001;stroke-linecap:butt;stroke-linejoin:round;stroke-miterlimit:10;stroke-dasharray:none;stroke-opacity:1"
         id="path234"
         inkscape:connector-curvature="0" /><g
         id="g236"><g
           id="g238"><path
             d="m 135.001,705.618 2.678,-1.681 0.473,1.941 z"
             style="fill:#000000;fill-opacity:1;fill-rule:evenodd;stroke:#000000;stroke-width:0.40000001;stroke-linecap:butt;stroke-linejoin:round;stroke-miterlimit:10;stroke-dasharray:none;stroke-opacity:1"
             id="path240"
             inkscape:connector-curvature="0" /></g></g></g><g
       id="g242"><path
         d="m 151.973,753.513 c -1.948,2.164 -1.773,5.496 0.39,7.444 2.163,1.948 5.496,1.774 7.444,-0.39 1.948,-2.163 1.773,-5.496 -0.39,-7.444 -1.295,-1.166 -3.083,-1.617 -4.776,-1.204"
         style="fill:none;stroke:#000000;stroke-width:0.40000001;stroke-linecap:butt;stroke-linejoin:round;stroke-miterlimit:10;stroke-dasharray:none;stroke-opacity:1"
         id="path244"
         inkscape:connector-curvature="0" /><g
         id="g246"><g
           id="g248"><path
             d="m 154.641,751.92 2.678,-1.681 0.473,1.941 z"
             style="fill:#000000;fill-opacity:1;fill-rule:evenodd;stroke:#000000;stroke-width:0.40000001;stroke-linecap:butt;stroke-linejoin:round;stroke-miterlimit:10;stroke-dasharray:none;stroke-opacity:1"
             id="path250"
             inkscape:connector-curvature="0" /></g></g></g><g
       id="g252"><path
         d="m 178.918,761.337 c -1.948,2.164 -1.773,5.497 0.39,7.444 2.164,1.948 5.496,1.774 7.444,-0.39 1.948,-2.163 1.774,-5.496 -0.39,-7.444 -1.295,-1.166 -3.083,-1.616 -4.776,-1.203"
         style="fill:none;stroke:#000000;stroke-width:0.40000001;stroke-linecap:butt;stroke-linejoin:round;stroke-miterlimit:10;stroke-dasharray:none;stroke-opacity:1"
         id="path254"
         inkscape:connector-curvature="0" /><g
         id="g256"><g
           id="g258"><path
             d="m 181.586,759.744 2.678,-1.681 0.474,1.941 z"
             style="fill:#000000;fill-opacity:1;fill-rule:evenodd;stroke:#000000;stroke-width:0.40000001;stroke-linecap:butt;stroke-linejoin:round;stroke-miterlimit:10;stroke-dasharray:none;stroke-opacity:1"
             id="path260"
             inkscape:connector-curvature="0" /></g></g></g><g
       id="g262"
       transform="translate(131.194,743.545)"><g
         id="g264"><g
           id="g266"
           clip-path="url(#clipPath270)"><g
             id="g272"
             transform="translate(0,-784.03)"><text
               transform="matrix(1,0,0,-1,0,786.023)"
               style="font-variant:normal;font-weight:normal;font-size:7.97009993px;font-family:CMR8;-inkscape-font-specification:CMR8;writing-mode:lr-tb;fill:#000000;fill-opacity:1;fill-rule:nonzero;stroke:none"
               id="text276"><tspan
                 x="0"
                 y="0"
                 id="tspan274">0</tspan></text>
<text
               transform="matrix(1,0,0,-1,4.234,786.023)"
               style="font-variant:normal;font-weight:normal;font-size:7.97009993px;font-family:CMMI8;-inkscape-font-specification:CMMI8;writing-mode:lr-tb;fill:#000000;fill-opacity:1;fill-rule:nonzero;stroke:none"
               id="text280"><tspan
                 x="0"
                 y="0"
                 id="tspan278">/</tspan></text>
<text
               transform="matrix(1,0,0,-1,8.468,786.023)"
               style="font-variant:normal;font-weight:normal;font-size:7.97009993px;font-family:CMR8;-inkscape-font-specification:CMR8;writing-mode:lr-tb;fill:#000000;fill-opacity:1;fill-rule:nonzero;stroke:none"
               id="text284"><tspan
                 x="0"
                 y="0"
                 id="tspan282">1</tspan></text>
</g></g></g></g><g
       id="g286"
       transform="translate(147.1,763.635)"><g
         id="g288"><g
           id="g290"
           clip-path="url(#clipPath294)"><g
             id="g296"
             transform="translate(0,-786.864)"><text
               transform="matrix(1,0,0,-1,0,786.864)"
               style="font-variant:normal;font-weight:normal;font-size:7.97009993px;font-family:CMR8;-inkscape-font-specification:CMR8;writing-mode:lr-tb;fill:#000000;fill-opacity:1;fill-rule:nonzero;stroke:none"
               id="text300"><tspan
                 x="0"
                 y="0"
                 id="tspan298">0</tspan></text>
</g></g></g></g><g
       id="g302"
       transform="translate(167.258,751.568)"><g
         id="g304"><g
           id="g306"
           clip-path="url(#clipPath310)"><g
             id="g312"
             transform="translate(0,-786.864)"><text
               transform="matrix(1,0,0,-1,0,786.864)"
               style="font-variant:normal;font-weight:normal;font-size:7.97009993px;font-family:CMR8;-inkscape-font-specification:CMR8;writing-mode:lr-tb;fill:#000000;fill-opacity:1;fill-rule:nonzero;stroke:none"
               id="text316"><tspan
                 x="0"
                 y="0"
                 id="tspan314">1</tspan></text>
</g></g></g></g><g
       id="g318"
       transform="translate(189.747,749.511)"><g
         id="g320"><g
           id="g322"
           clip-path="url(#clipPath326)"><g
             id="g328"
             transform="translate(0,-786.864)"><text
               transform="matrix(1,0,0,-1,0,786.864)"
               style="font-variant:normal;font-weight:normal;font-size:7.97009993px;font-family:CMR8;-inkscape-font-specification:CMR8;writing-mode:lr-tb;fill:#000000;fill-opacity:1;fill-rule:nonzero;stroke:none"
               id="text332"><tspan
                 x="0"
                 y="0"
                 id="tspan330">1</tspan></text>
</g></g></g></g><g
       id="g334"
       transform="translate(208.807,732.507)"><g
         id="g336"><g
           id="g338"
           clip-path="url(#clipPath342)"><g
             id="g344"
             transform="translate(0,-786.864)"><text
               transform="matrix(1,0,0,-1,0,786.864)"
               style="font-variant:normal;font-weight:normal;font-size:7.97009993px;font-family:CMR8;-inkscape-font-specification:CMR8;writing-mode:lr-tb;fill:#000000;fill-opacity:1;fill-rule:nonzero;stroke:none"
               id="text348"><tspan
                 x="0"
                 y="0"
                 id="tspan346">1</tspan></text>
</g></g></g></g><g
       id="g350"
       transform="translate(214.841,708.785)"><g
         id="g352"><g
           id="g354"
           clip-path="url(#clipPath358)"><g
             id="g360"
             transform="translate(0,-786.864)"><text
               transform="matrix(1,0,0,-1,0,786.864)"
               style="font-variant:normal;font-weight:normal;font-size:7.97009993px;font-family:CMR8;-inkscape-font-specification:CMR8;writing-mode:lr-tb;fill:#000000;fill-opacity:1;fill-rule:nonzero;stroke:none"
               id="text364"><tspan
                 x="0"
                 y="0"
                 id="tspan362">1</tspan></text>
</g></g></g></g><g
       id="g366"
       transform="translate(207.847,688.764)"><g
         id="g368"><g
           id="g370"
           clip-path="url(#clipPath374)"><g
             id="g376"
             transform="translate(0,-786.864)"><text
               transform="matrix(1,0,0,-1,0,786.864)"
               style="font-variant:normal;font-weight:normal;font-size:7.97009993px;font-family:CMR8;-inkscape-font-specification:CMR8;writing-mode:lr-tb;fill:#000000;fill-opacity:1;fill-rule:nonzero;stroke:none"
               id="text380"><tspan
                 x="0"
                 y="0"
                 id="tspan378">1</tspan></text>
</g></g></g></g><g
       id="g382"
       transform="translate(184.262,674.777)"><g
         id="g384"><g
           id="g386"
           clip-path="url(#clipPath390)"><g
             id="g392"
             transform="translate(0,-786.864)"><text
               transform="matrix(1,0,0,-1,0,786.864)"
               style="font-variant:normal;font-weight:normal;font-size:7.97009993px;font-family:CMR8;-inkscape-font-specification:CMR8;writing-mode:lr-tb;fill:#000000;fill-opacity:1;fill-rule:nonzero;stroke:none"
               id="text396"><tspan
                 x="0"
                 y="0"
                 id="tspan394">1</tspan></text>
</g></g></g></g><g
       id="g398"
       transform="translate(157.248,677.109)"><g
         id="g400"><g
           id="g402"
           clip-path="url(#clipPath406)"><g
             id="g408"
             transform="translate(0,-786.864)"><text
               transform="matrix(1,0,0,-1,0,786.864)"
               style="font-variant:normal;font-weight:normal;font-size:7.97009993px;font-family:CMR8;-inkscape-font-specification:CMR8;writing-mode:lr-tb;fill:#000000;fill-opacity:1;fill-rule:nonzero;stroke:none"
               id="text412"><tspan
                 x="0"
                 y="0"
                 id="tspan410">1</tspan></text>
</g></g></g></g><g
       id="g414"
       transform="translate(139.422,695.209)"><g
         id="g416"><g
           id="g418"
           clip-path="url(#clipPath422)"><g
             id="g424"
             transform="translate(0,-786.864)"><text
               transform="matrix(1,0,0,-1,0,786.864)"
               style="font-variant:normal;font-weight:normal;font-size:7.97009993px;font-family:CMR8;-inkscape-font-specification:CMR8;writing-mode:lr-tb;fill:#000000;fill-opacity:1;fill-rule:nonzero;stroke:none"
               id="text428"><tspan
                 x="0"
                 y="0"
                 id="tspan426">1</tspan></text>
</g></g></g></g><g
       id="g430"
       transform="translate(136.131,719.617)"><g
         id="g432"><g
           id="g434"
           clip-path="url(#clipPath438)"><g
             id="g440"
             transform="translate(0,-786.864)"><text
               transform="matrix(1,0,0,-1,0,786.864)"
               style="font-variant:normal;font-weight:normal;font-size:7.97009993px;font-family:CMR8;-inkscape-font-specification:CMR8;writing-mode:lr-tb;fill:#000000;fill-opacity:1;fill-rule:nonzero;stroke:none"
               id="text444"><tspan
                 x="0"
                 y="0"
                 id="tspan442">1</tspan></text>
</g></g></g></g><g
       id="g446"
       transform="translate(186.318,770.492)"><g
         id="g448"><g
           id="g450"
           clip-path="url(#clipPath454)"><g
             id="g456"
             transform="translate(0,-786.864)"><text
               transform="matrix(1,0,0,-1,0,786.864)"
               style="font-variant:normal;font-weight:normal;font-size:7.97009993px;font-family:CMR8;-inkscape-font-specification:CMR8;writing-mode:lr-tb;fill:#000000;fill-opacity:1;fill-rule:nonzero;stroke:none"
               id="text460"><tspan
                 x="0"
                 y="0"
                 id="tspan458">0</tspan></text>
</g></g></g></g><g
       id="g462"
       transform="translate(214.977,758.699)"><g
         id="g464"><g
           id="g466"
           clip-path="url(#clipPath470)"><g
             id="g472"
             transform="translate(0,-786.864)"><text
               transform="matrix(1,0,0,-1,0,786.864)"
               style="font-variant:normal;font-weight:normal;font-size:7.97009993px;font-family:CMR8;-inkscape-font-specification:CMR8;writing-mode:lr-tb;fill:#000000;fill-opacity:1;fill-rule:nonzero;stroke:none"
               id="text476"><tspan
                 x="0"
                 y="0"
                 id="tspan474">0</tspan></text>
</g></g></g></g><g
       id="g478"
       transform="translate(233.352,725.926)"><g
         id="g480"><g
           id="g482"
           clip-path="url(#clipPath486)"><g
             id="g488"
             transform="translate(0,-786.864)"><text
               transform="matrix(1,0,0,-1,0,786.864)"
               style="font-variant:normal;font-weight:normal;font-size:7.97009993px;font-family:CMR8;-inkscape-font-specification:CMR8;writing-mode:lr-tb;fill:#000000;fill-opacity:1;fill-rule:nonzero;stroke:none"
               id="text492"><tspan
                 x="0"
                 y="0"
                 id="tspan490">0</tspan></text>
</g></g></g></g><g
       id="g494"
       transform="translate(228.827,690.548)"><g
         id="g496"><g
           id="g498"
           clip-path="url(#clipPath502)"><g
             id="g504"
             transform="translate(0,-786.864)"><text
               transform="matrix(1,0,0,-1,0,786.864)"
               style="font-variant:normal;font-weight:normal;font-size:7.97009993px;font-family:CMR8;-inkscape-font-specification:CMR8;writing-mode:lr-tb;fill:#000000;fill-opacity:1;fill-rule:nonzero;stroke:none"
               id="text508"><tspan
                 x="0"
                 y="0"
                 id="tspan506">0</tspan></text>
</g></g></g></g><g
       id="g510"
       transform="translate(209.492,668.745)"><g
         id="g512"><g
           id="g514"
           clip-path="url(#clipPath518)"><g
             id="g520"
             transform="translate(0,-786.864)"><text
               transform="matrix(1,0,0,-1,0,786.864)"
               style="font-variant:normal;font-weight:normal;font-size:7.97009993px;font-family:CMR8;-inkscape-font-specification:CMR8;writing-mode:lr-tb;fill:#000000;fill-opacity:1;fill-rule:nonzero;stroke:none"
               id="text524"><tspan
                 x="0"
                 y="0"
                 id="tspan522">0</tspan></text>
</g></g></g></g><g
       id="g526"
       transform="translate(163.555,661.34)"><g
         id="g528"><g
           id="g530"
           clip-path="url(#clipPath534)"><g
             id="g536"
             transform="translate(0,-786.864)"><text
               transform="matrix(1,0,0,-1,0,786.864)"
               style="font-variant:normal;font-weight:normal;font-size:7.97009993px;font-family:CMR8;-inkscape-font-specification:CMR8;writing-mode:lr-tb;fill:#000000;fill-opacity:1;fill-rule:nonzero;stroke:none"
               id="text540"><tspan
                 x="0"
                 y="0"
                 id="tspan538">0</tspan></text>
</g></g></g></g><g
       id="g542"
       transform="translate(137.776,675.738)"><g
         id="g544"><g
           id="g546"
           clip-path="url(#clipPath550)"><g
             id="g552"
             transform="translate(0,-786.864)"><text
               transform="matrix(1,0,0,-1,0,786.864)"
               style="font-variant:normal;font-weight:normal;font-size:7.97009993px;font-family:CMR8;-inkscape-font-specification:CMR8;writing-mode:lr-tb;fill:#000000;fill-opacity:1;fill-rule:nonzero;stroke:none"
               id="text556"><tspan
                 x="0"
                 y="0"
                 id="tspan554">0</tspan></text>
</g></g></g></g><g
       id="g558"
       transform="translate(125.023,702.066)"><g
         id="g560"><g
           id="g562"
           clip-path="url(#clipPath566)"><g
             id="g568"
             transform="translate(0,-786.864)"><text
               transform="matrix(1,0,0,-1,0,786.864)"
               style="font-variant:normal;font-weight:normal;font-size:7.97009993px;font-family:CMR8;-inkscape-font-specification:CMR8;writing-mode:lr-tb;fill:#000000;fill-opacity:1;fill-rule:nonzero;stroke:none"
               id="text572"><tspan
                 x="0"
                 y="0"
                 id="tspan570">0</tspan></text>
</g></g></g></g></g></svg>