<?xml version="1.0" encoding="UTF-8" standalone="no"?>
<!-- Created with Inkscape (http://www.inkscape.org/) -->

<svg
   version="1.1"
   id="svg2"
   xml:space="preserve"
   width="121.21067"
   height="196.80133"
   viewBox="0 0 121.21067 196.80133"
   sodipodi:docname="main.pdf"
   xmlns:inkscape="http://www.inkscape.org/namespaces/inkscape"
   xmlns:sodipodi="http://sodipodi.sourceforge.net/DTD/sodipodi-0.dtd"
   xmlns="http://www.w3.org/2000/svg"
   xmlns:svg="http://www.w3.org/2000/svg"><defs
     id="defs6" /><sodipodi:namedview
     id="namedview4"
     pagecolor="#ffffff"
     bordercolor="#666666"
     borderopacity="1.0"
     inkscape:pageshadow="2"
     inkscape:pageopacity="0.0"
     inkscape:pagecheckerboard="0" /><g
     id="g8"
     inkscape:groupmode="layer"
     inkscape:label="main"
     transform="matrix(1.3333333,0,0,-1.3333333,0,196.80133)"><g
       id="g10"
       transform="translate(2.934,2.934)"><g
         id="g12"><g
           id="g14"><g
             id="g16"><path
               d="M -2.83484,0 H 87.87527 M -2.83484,28.3468 H 87.87527 M -2.83484,56.69362 h 90.71011 m -90.71011,28.3468 h 90.71011 m -90.71011,28.34682 h 90.71011 m -90.71011,28.3468 H 87.87527 M 0,-2.83484 V 144.5689 M 28.3468,-2.83484 V 144.5689 M 56.69362,-2.83484 V 144.5689 M 85.04042,-2.83484 V 144.5689"
               style="fill:none;stroke:#808080;stroke-width:0.19925;stroke-linecap:butt;stroke-linejoin:miter;stroke-miterlimit:10;stroke-dasharray:none;stroke-opacity:1"
               id="path18" /></g><path
             d="m 0,141.73404 28.3468,-28.3468 28.34682,28.3468 28.3468,-28.3468"
             style="fill:#808080;fill-opacity:1;fill-rule:nonzero;stroke:#000000;stroke-width:0.79701;stroke-linecap:butt;stroke-linejoin:miter;stroke-miterlimit:10;stroke-dasharray:none;stroke-opacity:1"
             id="path20" /><path
             d="m 0,85.04042 h 28.3468 l 28.34682,28.34682 z"
             style="fill:#808080;fill-opacity:1;fill-rule:nonzero;stroke:#000000;stroke-width:0.79701;stroke-linecap:butt;stroke-linejoin:miter;stroke-miterlimit:10;stroke-dasharray:none;stroke-opacity:1"
             id="path22" /><path
             d="m 56.69362,56.69362 v 28.3468 h 28.3468 v -28.3468 z"
             style="fill:#808080;fill-opacity:1;fill-rule:nonzero;stroke:#000000;stroke-width:0.79701;stroke-linecap:butt;stroke-linejoin:miter;stroke-miterlimit:10;stroke-dasharray:none;stroke-opacity:1"
             id="path24" /><path
             d="m 41.10277,56.69362 c 0,7.045 -5.71095,12.75595 -12.75597,12.75595 -7.04501,0 -12.75596,-5.71095 -12.75596,-12.75595 0,-7.04502 5.71095,-12.75597 12.75596,-12.75597 7.04502,0 12.75597,5.71095 12.75597,12.75597 z"
             style="fill:#808080;fill-opacity:1;fill-rule:nonzero;stroke:#000000;stroke-width:0.79701;stroke-linecap:butt;stroke-linejoin:miter;stroke-miterlimit:10;stroke-dasharray:none;stroke-opacity:1"
             id="path26" /><path
             d="m 34.01608,28.3468 c 0,7.04502 -2.53819,12.75597 -5.66928,12.75597 -3.13109,0 -5.66926,-5.71095 -5.66926,-12.75597 0,-7.04501 2.53817,-12.75596 5.66926,-12.75596 3.13109,0 5.66928,5.71095 5.66928,12.75596 z"
             style="fill:#808080;fill-opacity:1;fill-rule:nonzero;stroke:#000000;stroke-width:0.79701;stroke-linecap:butt;stroke-linejoin:miter;stroke-miterlimit:10;stroke-dasharray:none;stroke-opacity:1"
             id="path28" /></g></g></g></g></svg>
