<svg xmlns="http://www.w3.org/2000/svg" width="369.8167724609375" height="215.36932373046875" viewBox="-146.18487548828125 -113.94837188720703 369.8167724609375 215.36932373046875"><title>Neo4j Graph Visualization</title><desc>Created using Neo4j (http://www.neo4j.com/)</desc><g class="layer relationships"><g class="relationship" transform="translate(-113.60270479166823 72.42094054619108) rotate(358.3915427381547)"><path class="outline" fill="#569480" stroke="none" d="M 25 1 L 45.582546098794765 1 L 45.582546098794765 -1 L 25 -1 Z M 57.359889848794765 1 L 77.94243594758953 1 L 77.94243594758953 4 L 85.94243594758953 0 L 77.94243594758953 -4 L 77.94243594758953 -1 L 57.359889848794765 -1 Z"/><text text-anchor="middle" pointer-events="none" font-size="8px" fill="#000000" x="51.471217973794765" y="3" font-family="sans-serif">H</text></g><g class="relationship" transform="translate(-117.18487714019096 -84.94836844577361) rotate(361.1294109023022)"><path class="outline" fill="#569480" stroke="none" d="M 25 1 L 45.65673962477878 1 L 45.65673962477878 -1 L 25 -1 Z M 57.43408337477878 1 L 78.09082299955756 1 L 78.09082299955756 4 L 86.09082299955756 0 L 78.09082299955756 -4 L 78.09082299955756 -1 L 57.43408337477878 -1 Z"/><text text-anchor="middle" pointer-events="none" font-size="8px" fill="#000000" x="51.54541149977878" y="3" font-family="sans-serif">H</text></g><g class="relationship" transform="translate(-6.115636196509282 -82.75869474555839) rotate(358.96267500344493)"><path class="outline" fill="#569480" stroke="none" d="M 25 1 L 39.60972420906497 1 L 39.60972420906497 -1 L 25 -1 Z M 51.38706795906497 1 L 65.99679216812994 1 L 65.99679216812994 4 L 73.99679216812994 0 L 65.99679216812994 -4 L 65.99679216812994 -1 L 51.38706795906497 -1 Z"/><text text-anchor="middle" pointer-events="none" font-size="8px" fill="#000000" x="45.49839608406497" y="3" font-family="sans-serif">H</text></g><g class="relationship" transform="translate(92.86493175689863 -84.55090767953551) rotate(360.4188353425229)"><path class="outline" fill="#569480" stroke="none" d="M 25 1 L 40.99618057873948 1 L 40.99618057873948 -1 L 25 -1 Z M 52.77352432873948 1 L 68.76970490747895 1 L 68.76970490747895 4 L 76.76970490747895 0 L 68.76970490747895 -4 L 68.76970490747895 -1 L 52.77352432873948 -1 Z"/><text text-anchor="middle" pointer-events="none" font-size="8px" fill="#000000" x="46.88485245373948" y="3" font-family="sans-serif">H</text></g><g class="relationship" transform="translate(-117.16421517461708 -4.7220093326643) rotate(360.0369724324583)"><path class="outline" fill="#569480" stroke="none" d="M 25 1 L 47.648545922565184 1 L 47.648545922565184 -1 L 25 -1 Z M 59.425889672565184 1 L 82.07443559513037 1 L 82.07443559513037 4 L 90.07443559513037 0 L 82.07443559513037 -4 L 82.07443559513037 -1 L 59.425889672565184 -1 Z"/><text text-anchor="middle" pointer-events="none" font-size="8px" fill="#000000" x="53.537217797565184" y="3" font-family="sans-serif">H</text></g><g class="relationship" transform="translate(-2.7039820809767434 69.306876461724) rotate(322.19194597019344)"><path class="outline" fill="#569480" stroke="none" d="M 25 0.5 L 115.4965833593994 0.5 L 115.4965833593994 -0.5 L 25 -0.5 Z M 127.2739271093994 0.5 L 217.7705104687988 0.5 L 217.7705104687988 3.5 L 224.7705104687988 0 L 217.7705104687988 -3.5 L 217.7705104687988 -0.5 L 127.2739271093994 -0.5 Z"/><text text-anchor="middle" pointer-events="none" font-size="8px" fill="#000000" x="121.3852552343994" y="3" font-family="sans-serif">D</text></g><g class="relationship" transform="translate(-2.089803537986839 -4.647752877152069) rotate(338.08054711639386)"><path class="outline" fill="#569480" stroke="none" d="M 25 0.5 L 96.6368174339154 0.5 L 96.6368174339154 -0.5 L 25 -0.5 Z M 108.4141611839154 0.5 L 180.0509786178308 0.5 L 180.0509786178308 3.5 L 187.0509786178308 0 L 180.0509786178308 -3.5 L 180.0509786178308 -0.5 L 108.4141611839154 -0.5 Z"/><text text-anchor="middle" pointer-events="none" font-size="8px" fill="#000000" x="102.5254893089154" y="3" font-family="sans-serif">D</text></g></g><g class="layer nodes"><g class="node" transform="translate(-113.60270479166823,72.42094054619108)"><circle class="outline" cx="0" cy="0" r="25" fill="#8DCC93" stroke="#5db665" stroke-width="2px"/><text text-anchor="middle" pointer-events="none" font-family="sans-serif" dy="1.5625" font-size="25" fill="#604A0E"/><text text-anchor="middle" pointer-events="none" y="5" font-size="10px" fill="#604A0E" font-family="sans-serif"> Probabili…</text></g><g class="node" transform="translate(-117.18487714019096,-84.94836844577361)"><circle class="outline" cx="0" cy="0" r="25" fill="#8DCC93" stroke="#5db665" stroke-width="2px"/><text text-anchor="middle" pointer-events="none" font-family="sans-serif" dy="1.5625" font-size="25" fill="#604A0E"/><text text-anchor="middle" pointer-events="none" y="5" font-size="10px" fill="#604A0E" font-family="sans-serif"> Algorith…</text></g><g class="node" transform="translate(-6.115636196509282,-82.75869474555839)"><circle class="outline" cx="0" cy="0" r="25" fill="#8DCC93" stroke="#5db665" stroke-width="2px"/><text text-anchor="middle" pointer-events="none" font-family="sans-serif" dy="1.5625" font-size="25" fill="#604A0E"/><text text-anchor="middle" pointer-events="none" font-family="sans-serif" dy="1.5625" font-size="25" fill="#604A0E"/><text text-anchor="middle" pointer-events="none" y="0" font-size="10px" fill="#604A0E" font-family="sans-serif"> Sorting</text><text text-anchor="middle" pointer-events="none" y="10" font-size="10px" fill="#604A0E" font-family="sans-serif"> algorith…</text></g><g class="node" transform="translate(92.86493175689863,-84.55090767953551)"><circle class="outline" cx="0" cy="0" r="25" fill="#8DCC93" stroke="#5db665" stroke-width="2px"/><text text-anchor="middle" pointer-events="none" font-family="sans-serif" dy="1.5625" font-size="25" fill="#604A0E"/><text text-anchor="middle" pointer-events="none" y="5" font-size="10px" fill="#604A0E" font-family="sans-serif"> Quick sort</text></g><g class="node" transform="translate(194.63191754694668,-83.80697208857028)"><circle class="outline" cx="0" cy="0" r="25" fill="#8DCC93" stroke="#5db665" stroke-width="2px"/><text text-anchor="middle" pointer-events="none" font-family="sans-serif" dy="1.5625" font-size="25" fill="#604A0E"/><text text-anchor="middle" pointer-events="none" font-family="sans-serif" dy="1.5625" font-size="25" fill="#604A0E"/><text text-anchor="middle" pointer-events="none" y="0" font-size="10px" fill="#604A0E" font-family="sans-serif"> QS -</text><text text-anchor="middle" pointer-events="none" y="10" font-size="10px" fill="#604A0E" font-family="sans-serif"> comple…</text></g><g class="node" transform="translate(-117.16421517461708,-4.7220093326643)"><circle class="outline" cx="0" cy="0" r="25" fill="#8DCC93" stroke="#5db665" stroke-width="2px"/><text text-anchor="middle" pointer-events="none" font-family="sans-serif" dy="1.5625" font-size="25" fill="#604A0E"/><text text-anchor="middle" pointer-events="none" y="5" font-size="10px" fill="#604A0E" font-family="sans-serif"> Comple…</text></g><g class="node" transform="translate(-2.7039820809767434,69.306876461724)"><circle class="outline" cx="0" cy="0" r="25" fill="#8DCC93" stroke="#5db665" stroke-width="2px"/><text text-anchor="middle" pointer-events="none" font-family="sans-serif" dy="1.5625" font-size="25" fill="#604A0E"/><text text-anchor="middle" pointer-events="none" font-family="sans-serif" dy="1.5625" font-size="25" fill="#604A0E"/><text text-anchor="middle" pointer-events="none" y="0" font-size="10px" fill="#604A0E" font-family="sans-serif"> Expected</text><text text-anchor="middle" pointer-events="none" y="10" font-size="10px" fill="#604A0E" font-family="sans-serif"> number</text></g><g class="node" transform="translate(-2.089803537986839,-4.647752877152069)"><circle class="outline" cx="0" cy="0" r="25" fill="#8DCC93" stroke="#5db665" stroke-width="2px"/><text text-anchor="middle" pointer-events="none" font-family="sans-serif" dy="1.5625" font-size="25" fill="#604A0E"/><text text-anchor="middle" pointer-events="none" font-family="sans-serif" dy="1.5625" font-size="25" fill="#604A0E"/><text text-anchor="middle" pointer-events="none" y="0" font-size="10px" fill="#604A0E" font-family="sans-serif"> Time</text><text text-anchor="middle" pointer-events="none" y="10" font-size="10px" fill="#604A0E" font-family="sans-serif"> comple…</text></g></g></svg>