<?xml version="1.0" encoding="UTF-8" standalone="no"?>
<!-- Created with Inkscape (http://www.inkscape.org/) -->

<svg
   version="1.1"
   id="svg2"
   xml:space="preserve"
   width="75.590668"
   height="75.590668"
   viewBox="0 0 75.590668 75.590668"
   sodipodi:docname="main.pdf"
   xmlns:inkscape="http://www.inkscape.org/namespaces/inkscape"
   xmlns:sodipodi="http://sodipodi.sourceforge.net/DTD/sodipodi-0.dtd"
   xmlns="http://www.w3.org/2000/svg"
   xmlns:svg="http://www.w3.org/2000/svg"><defs
     id="defs6" /><sodipodi:namedview
     id="namedview4"
     pagecolor="#ffffff"
     bordercolor="#666666"
     borderopacity="1.0"
     inkscape:pageshadow="2"
     inkscape:pageopacity="0.0"
     inkscape:pagecheckerboard="0" /><g
     id="g8"
     inkscape:groupmode="layer"
     inkscape:label="main"
     transform="matrix(1.3333333,0,0,-1.3333333,0,75.590667)"><g
       id="g10"
       transform="translate(28.346,28.346)"><g
         id="g12"><g
           id="g14"><g
             id="g16"><path
               d="M 28.3468,0 C 28.3468,15.6557 15.6557,28.3468 0,28.3468 -15.6557,28.3468 -28.3468,15.6557 -28.3468,0 c 0,-15.6557 12.6911,-28.3468 28.3468,-28.3468 15.6557,0 28.3468,12.6911 28.3468,28.3468 z"
               style="fill:#ccccff;fill-opacity:1;fill-rule:nonzero;stroke:none"
               id="path18" /></g><path
             d="M 0,0 19.72018,19.72018"
             style="fill:none;stroke:#000000;stroke-width:0.3985;stroke-linecap:butt;stroke-linejoin:miter;stroke-miterlimit:10;stroke-dasharray:none;stroke-opacity:1"
             id="path20" /><g
             id="g22"
             transform="matrix(0.7071,0.7071,-0.7071,0.7071,19.72018,19.72018)"><g
               id="g24"><path
                 d="M -1.19551,1.59401 C -1.09587,0.99626 0,0.09961 0.29886,0 0,-0.09961 -1.09587,-0.99626 -1.19551,-1.59401"
                 style="fill:none;stroke:#000000;stroke-width:0.31879;stroke-linecap:round;stroke-linejoin:round;stroke-miterlimit:10;stroke-dasharray:none;stroke-opacity:1"
                 id="path26" /></g></g><g
             id="g28"><g
               id="g30"
               transform="translate(-17.31,-10.438)"><g
                 id="g32"><g
                   id="g34"
                   transform="translate(-11.036,-17.908)"><text
                     transform="matrix(1,0,0,-1,11.036,17.908)"
                     style="font-variant:normal;font-weight:normal;font-size:9.9626px;font-family:CMR10;-inkscape-font-specification:CMR10;writing-mode:lr-tb;fill:#000000;fill-opacity:1;fill-rule:nonzero;stroke:none"
                     id="text38"><tspan
                       x="0 5.5352206 9.4375706 14.139918 21.334908 24.102518 29.637739"
                       y="0"
                       sodipodi:role="line"
                       id="tspan36">drawing</tspan></text><g
                     id="g40"
                     transform="translate(11.036,17.908)" /></g></g><g
                 id="g42"
                 transform="translate(17.31,10.438)" /></g></g></g></g></g></g></svg>
