<?xml version="1.0" encoding="UTF-8" standalone="no"?>
<!-- Created with Inkscape (http://www.inkscape.org/) -->

<svg
   version="1.1"
   id="svg2"
   xml:space="preserve"
   width="82.37867"
   height="111.82"
   viewBox="0 0 82.37867 111.82"
   sodipodi:docname="main.pdf"
   xmlns:inkscape="http://www.inkscape.org/namespaces/inkscape"
   xmlns:sodipodi="http://sodipodi.sourceforge.net/DTD/sodipodi-0.dtd"
   xmlns="http://www.w3.org/2000/svg"
   xmlns:svg="http://www.w3.org/2000/svg"><defs
     id="defs6" /><sodipodi:namedview
     id="namedview4"
     pagecolor="#ffffff"
     bordercolor="#666666"
     borderopacity="1.0"
     inkscape:pageshadow="2"
     inkscape:pageopacity="0.0"
     inkscape:pagecheckerboard="0" /><g
     id="g8"
     inkscape:groupmode="layer"
     inkscape:label="main"
     transform="matrix(1.3333333,0,0,-1.3333333,0,111.82)"><g
       id="g10"
       transform="translate(-38.264,29.393)"><g
         id="g12"><g
           id="g14"><g
             id="g16" /><g
             id="g18" /><g
             id="g20" /><g
             id="g22"><path
               d="M 44.95192,-11.74167 85.04042,28.3468 M 44.95192,-11.74167 64.3426,41.53316"
               style="fill:none;stroke:#808080;stroke-width:0.19925;stroke-linecap:butt;stroke-linejoin:miter;stroke-miterlimit:10;stroke-dasharray:2.98883, 2.98883;stroke-dashoffset:0;stroke-opacity:1"
               id="path24" /></g><g
             id="g26"><path
               d="m 87.87527,28.3468 c 0,1.56566 -1.26919,2.83486 -2.83485,2.83486 -1.56564,0 -2.83485,-1.2692 -2.83485,-2.83486 0,-1.56566 1.26921,-2.83485 2.83485,-2.83485 1.56566,0 2.83485,1.26919 2.83485,2.83485 z"
               style="fill:none;stroke:#0000ff;stroke-width:0.3985;stroke-linecap:butt;stroke-linejoin:miter;stroke-miterlimit:10;stroke-dasharray:none;stroke-opacity:1"
               id="path28" /><g
               id="g30"><g
                 id="g32"
                 transform="translate(74.758,10.075)"><g
                   id="g34"><g
                     id="g36"
                     transform="translate(-36.494,-39.468)"><text
                       transform="matrix(1,0,0,-1,36.494,39.468)"
                       style="font-variant:normal;font-weight:normal;font-size:9.9626px;font-family:CMR10;-inkscape-font-specification:CMR10;writing-mode:lr-tb;fill:#0000ff;fill-opacity:1;fill-rule:nonzero;stroke:none"
                       id="text40"><tspan
                         x="0 3.9292495 7.8037047 12.785005 16.687355"
                         y="0"
                         sodipodi:role="line"
                         id="tspan38">start</tspan></text><g
                       id="g42"
                       transform="translate(36.494,39.468)" /></g></g><g
                   id="g44"
                   transform="translate(-74.758,-10.075)" /></g></g></g><g
             id="g46"><path
               d="m 47.78677,-11.74167 c 0,1.56566 -1.26919,2.83486 -2.83485,2.83486 -1.56564,0 -2.83484,-1.2692 -2.83484,-2.83486 0,-1.56564 1.2692,-2.83485 2.83484,-2.83485 1.56566,0 2.83485,1.26921 2.83485,2.83485 z"
               style="fill:none;stroke:#ff0000;stroke-width:0.3985;stroke-linecap:butt;stroke-linejoin:miter;stroke-miterlimit:10;stroke-dasharray:none;stroke-opacity:1"
               id="path48" /><g
               id="g50"><g
                 id="g52"
                 transform="translate(49.643,-14.805)"><g
                   id="g54"><g
                     id="g56"
                     transform="translate(-11.379,-14.588)"><text
                       transform="matrix(1,0,0,-1,11.379,14.588)"
                       style="font-variant:normal;font-weight:normal;font-size:9.9626px;font-family:CMR10;-inkscape-font-specification:CMR10;writing-mode:lr-tb;fill:#ff0000;fill-opacity:1;fill-rule:nonzero;stroke:none"
                       id="text60"><tspan
                         x="0 4.4273796 8.8547592 14.111027 17.985481 22.412861"
                         y="0"
                         sodipodi:role="line"
                         id="tspan58">center</tspan></text><g
                       id="g62"
                       transform="translate(11.379,14.588)" /></g></g><g
                   id="g64"
                   transform="translate(-49.643,14.805)" /></g></g></g><g
             id="g66"><path
               d="m 67.17746,41.53316 c 0,1.56564 -1.2692,2.83484 -2.83486,2.83484 -1.56564,0 -2.83483,-1.2692 -2.83483,-2.83484 0,-1.56566 1.26919,-2.83486 2.83483,-2.83486 1.56566,0 2.83486,1.2692 2.83486,2.83486 z"
               style="fill:none;stroke:#00ff00;stroke-width:0.3985;stroke-linecap:butt;stroke-linejoin:miter;stroke-miterlimit:10;stroke-dasharray:none;stroke-opacity:1"
               id="path68" /><g
               id="g70"><g
                 id="g72"
                 transform="translate(43.455,38.074)"><g
                   id="g74"><g
                     id="g76"
                     transform="translate(-5.191,-67.467)"><text
                       transform="matrix(1,0,0,-1,5.191,67.467)"
                       style="font-variant:normal;font-weight:normal;font-size:9.9626px;font-family:CMR10;-inkscape-font-specification:CMR10;writing-mode:lr-tb;fill:#00ff00;fill-opacity:1;fill-rule:nonzero;stroke:none"
                       id="text80"><tspan
                         x="0 4.4273796 9.9625998"
                         y="0"
                         sodipodi:role="line"
                         id="tspan78">end</tspan></text><g
                       id="g82"
                       transform="translate(5.191,67.467)" /></g></g><g
                   id="g84"
                   transform="translate(-43.455,-38.074)" /></g></g></g><path
             d="M 85.04042,28.3468 C 79.18906,34.19817 72.11877,38.7035 64.3426,41.53316"
             style="fill:none;stroke:#000000;stroke-width:0.3985;stroke-linecap:butt;stroke-linejoin:miter;stroke-miterlimit:10;stroke-dasharray:none;stroke-opacity:1"
             id="path86" /></g></g></g></g></svg>
